0
SECTION
2
HEADER
9
$INSUNITS
70
4
9
$ACADVER
1
AC1014
9
$HANDSEED
5
FFFF
0
ENDSEC
0
SECTION
2
TABLES
0
TABLE
2
VPORT
5
8
100
AcDbSymbolTable
0
ENDTAB
0
TABLE
2
LTYPE
5
5
100
AcDbSymbolTable
0
LTYPE
5
14
100
AcDbSymbolTableRecord
100
AcDbLinetypeTableRecord
2
BYBLOCK
70
0
0
LTYPE
5
15
100
AcDbSymbolTableRecord
100
AcDbLinetypeTableRecord
2
BYLAYER
70
0
0
ENDTAB
0
TABLE
2
LAYER
5
2
100
AcDbSymbolTable
70
2
0
LAYER
5
50
100
AcDbSymbolTableRecord
100
AcDbLayerTableRecord
2
0
70
0
6
CONTINUOUS
0
ENDTAB
0
TABLE
2
STYLE
5
3
100
AcDbSymbolTable
70
1
0
STYLE
5
11
100
AcDbSymbolTableRecord
100
AcDbTextStyleTableRecord
2
STANDARD
70
0
0
ENDTAB
0
TABLE
2
VIEW
5
6
100
AcDbSymbolTable
70
0
0
ENDTAB
0
TABLE
2
UCS
5
7
100
AcDbSymbolTable
70
0
0
ENDTAB
0
TABLE
2
APPID
5
9
100
AcDbSymbolTable
70
2
0
APPID
5
12
100
AcDbSymbolTableRecord
100
AcDbRegAppTableRecord
2
ACAD
70
0
0
ENDTAB
0
TABLE
2
DIMSTYLE
5
A
100
AcDbSymbolTable
70
1
0
ENDTAB
0
TABLE
2
BLOCK_RECORD
5
1
100
AcDbSymbolTable
70
1
0
BLOCK_RECORD
5
1F
100
AcDbSymbolTableRecord
100
AcDbBlockTableRecord
2
*MODEL_SPACE
0
BLOCK_RECORD
5
1B
100
AcDbSymbolTableRecord
100
AcDbBlockTableRecord
2
*PAPER_SPACE
0
ENDTAB
0
ENDSEC
0
SECTION
2
BLOCKS
0
BLOCK
5
20
100
AcDbEntity
100
AcDbBlockBegin
2
*MODEL_SPACE
0
ENDBLK
5
21
100
AcDbEntity
100
AcDbBlockEnd
0
BLOCK
5
1C
100
AcDbEntity
100
AcDbBlockBegin
2
*PAPER_SPACE
0
ENDBLK
5
1D
100
AcDbEntity
100
AcDbBlockEnd
0
ENDSEC
0
SECTION
2
ENTITIES
0
LWPOLYLINE
5
100
100
AcDbEntity
8
0
100
AcDbPolyline
90
4
43
0.0
10
37.98263965462721
20
-41.946855940135755
10
36.97701501620441
20
-49.05159459538828
10
35.28721485386072
20
-51.78584687269512
10
32.12617176777691
20
-52.59092513916267
0
LINE
5
101
100
AcDbEntity
8
0
100
AcDbLine
10
32.12617176777691
20
-52.590925139162678
30
0
11
21.394923600719203
21
-51.401724460416183
31
0
0
ARC
5
102
100
AcDbEntity
8
0
100
AcDbCircle
10
20.249046629141073
20
-59.319234546674799
30
0
40
7.9999999999999973
210
0
220
-0
230
1
100
AcDbArc
50
81.764936636547787
51
83.676475970370674
0
LWPOLYLINE
5
103
100
AcDbEntity
8
0
100
AcDbPolyline
90
2
43
0.0
10
21.130185782259492
20
-51.36790800371093
10
15.27453450529466
20
-51.83368103519152
0
LWPOLYLINE
5
104
100
AcDbEntity
8
0
100
AcDbPolyline
90
2
43
0.0
10
15.274534505294675
20
-51.833681035191624
10
13.662366072111096
20
-49.306844802156654
0
LWPOLYLINE
5
105
100
AcDbEntity
8
0
100
AcDbPolyline
90
2
43
0.0
10
13.662366072111217
20
-49.3068448021567
10
14.341159825829745
20
-44.98639810573936
0
ARC
5
106
100
AcDbEntity
8
0
100
AcDbCircle
10
2.0000000298023224
20
-43.000000640749946
30
0
40
12.5
210
-0
220
0
230
1
100
AcDbArc
50
-9.1437386929625255
51
66.956010447421008
0
LINE
5
107
100
AcDbEntity
8
0
100
AcDbLine
10
6.8929718097276549
20
-10.874295192250711
30
0
11
6.8929718097276549
21
-8.2229154066234429
31
0
0
ARC
5
108
100
AcDbEntity
8
0
100
AcDbCircle
10
2.6053786953980236
20
3.5187431340578157
30
0
40
12.500000000000004
210
-0
220
0
230
1
100
AcDbArc
50
290.06021042003795
51
319.26924917650905
0
LWPOLYLINE
5
109
100
AcDbEntity
8
0
100
AcDbPolyline
90
2
43
0.0
10
12.077681742619784
20
-4.637571902868682
10
12.671706359655518
20
-4.02284871126222
0
LWPOLYLINE
5
110
100
AcDbEntity
8
0
100
AcDbPolyline
90
2
43
0.0
10
12.671706359655516
20
-4.022848711262217
10
16.148170652168776
20
-4.513766951271784
0
LINE
5
111
100
AcDbEntity
8
0
100
AcDbLine
10
16.14817065216878
20
-4.5137669512717853
30
0
11
26.805795116825266
21
-4.5656125717910623
31
0
0
LWPOLYLINE
5
112
100
AcDbEntity
8
0
100
AcDbPolyline
90
2
43
0.0
10
26.805795116825262
20
-4.56561257179106
10
32.19560226471433
20
-7.689652677706041
0
LWPOLYLINE
5
113
100
AcDbEntity
8
0
100
AcDbPolyline
90
3
43
0.0
10
32.195602264714324
20
-7.689652677706069
10
36.492372745048165
20
-11.115717981319
10
37.9826396546272
20
-16.55292926263101
0
LINE
5
114
100
AcDbEntity
8
0
100
AcDbLine
10
37.982639654627206
20
-16.552929262631014
30
0
11
37.982639654627206
21
-41.946855940135762
31
0
0
LWPOLYLINE
5
115
100
AcDbEntity
8
0
100
AcDbPolyline
90
3
43
0.0
10
57.93336408302346
20
-51.166255363326464
10
52.13813531958785
20
-48.29561486308451
10
49.98263965462723
20
-41.94685594013575
0
LINE
5
116
100
AcDbEntity
8
0
100
AcDbLine
10
49.982639654627228
20
-41.946855940135748
30
0
11
49.982639654627228
21
-16.552929262631014
31
0
0
LWPOLYLINE
5
117
100
AcDbEntity
8
0
100
AcDbPolyline
90
3
43
0.0
10
49.98263965462723
20
-16.552929262631014
10
51.2615217234475
20
-11.14247600440677
10
55.32449443278349
20
-7.689652677706069
0
LWPOLYLINE
5
118
100
AcDbEntity
8
0
100
AcDbPolyline
90
6
43
0.0
10
55.32449443278345
20
-7.689652677706069
10
62.19217179890306
20
-3.9223159686147304
10
66.27494921619355
20
0.5751775286494061
10
71.95577693772111
20
10.135767778482716
10
76.41274411333515
20
19.29436657719729
10
79.39412459138507
20
25.049463082077718
0
LWPOLYLINE
5
119
100
AcDbEntity
8
0
100
AcDbPolyline
90
2
43
0.0
10
79.39412459138508
20
25.0494630820777
10
83.65918987497633
20
28.927758253125415
0
ARC
5
120
100
AcDbEntity
8
0
100
AcDbCircle
10
92.537498265087663
20
37.726942313598222
30
0
40
12.49999999999998
210
0
220
0
230
1
100
AcDbArc
50
224.74354621376855
51
232.3326637151136
0
LWPOLYLINE
5
121
100
AcDbEntity
8
0
100
AcDbPolyline
90
3
43
0.0
10
84.89904985624503
20
27.83229194557368
10
78.75092431774029
20
16.474078014760117
10
76.72213318048344
20
4.260072292637517
0
LWPOLYLINE
5
122
100
AcDbEntity
8
0
100
AcDbPolyline
90
2
43
0.0
10
76.72213318048345
20
4.260072292637478
10
76.90132724898216
20
-2.2773569257720507
0
LWPOLYLINE
5
123
100
AcDbEntity
8
0
100
AcDbPolyline
90
2
43
0.0
10
76.90132724898216
20
-2.2773569257724136
10
77.82769171978406
20
-12.862973235476357
0
LWPOLYLINE
5
124
100
AcDbEntity
8
0
100
AcDbPolyline
90
2
43
0.0
10
78.49092161380464
20
-27.507290522989223
10
78.13988444658015
20
-33.66936182908785
0
LINE
5
125
100
AcDbEntity
8
0
100
AcDbLine
10
78.139884446580155
20
-33.669361829087848
30
0
11
76.902761032099178
21
-45.573587435278313
31
0
0
ARC
5
126
100
AcDbEntity
8
0
100
AcDbCircle
10
81.092068765860432
20
-57.350671145257124
30
0
40
12.500000000000007
210
0
220
0
230
1
100
AcDbArc
50
109.58133237014988
51
150.34651849153246
0
LINE
5
127
100
AcDbEntity
8
0
100
AcDbLine
10
70.229150123239236
20
-51.166255363326471
30
0
11
57.933364083023463
21
-51.166255363326471
31
0
0
LWPOLYLINE
5
128
100
AcDbEntity
8
0
100
AcDbPolyline
90
2
43
0.0
10
35.109981510934155
20
-1.1447138650812423
10
30.62520366132086
20
1.6542878467470625
0
LINE
5
129
100
AcDbEntity
8
0
100
AcDbLine
10
29.058465730752374
20
2.4235117988895336
30
0
11
16.18222280428785
21
2.4861502233050725
31
0
0
LWPOLYLINE
5
130
100
AcDbEntity
8
0
100
AcDbPolyline
90
2
43
0.0
10
16.18222280428785
20
2.4861502233050725
10
13.13024467960297
20
3.3073270191144464
0
LWPOLYLINE
5
131
100
AcDbEntity
8
0
100
AcDbPolyline
90
2
43
0.0
10
11.261022509440576
20
3.3712714212687183
10
6.773192036175599
20
-0.07003548218984468
0
ARC
5
132
100
AcDbEntity
8
0
100
AcDbCircle
10
2.6053786953980236
20
3.5187431340578157
30
0
40
5.5000000000000018
210
0
220
0
230
1
100
AcDbArc
50
268.61838423686891
51
319.26924917650905
0
LWPOLYLINE
5
133
100
AcDbEntity
8
0
100
AcDbPolyline
90
2
43
0.0
10
2.4727659556976698
20
-1.979657893629158
10
1.693349337788936
20
-2.0063291913956918
0
LINE
5
134
100
AcDbEntity
8
0
100
AcDbLine
10
-0.10702819027234417
20
-3.9963419724343154
30
0
11
-0.10702819027234331
21
-35.498846748934788
31
0
0
LWPOLYLINE
5
135
100
AcDbEntity
8
0
100
AcDbPolyline
90
2
43
0.0
10
1.8491152294383941
20
-37.498365841208056
10
2.0000000298023233
20
-37.500000640749946
0
ARC
5
136
100
AcDbEntity
8
0
100
AcDbCircle
10
2.0000000298023224
20
-43.000000640749946
30
0
40
5.5000000000000027
210
0
220
0
230
1
100
AcDbArc
50
-9.1437386929626268
51
90
0
LWPOLYLINE
5
137
100
AcDbEntity
8
0
100
AcDbPolyline
90
2
43
0.0
10
7.430110340054388
20
-43.87401552534529
10
7.473166423334022
20
-52.62665630979638
0
LWPOLYLINE
5
138
100
AcDbEntity
8
0
100
AcDbPolyline
90
2
43
0.0
10
7.473166423334022
20
-52.626656309796374
10
11.89408937382976
20
-58.57279229834415
0
LWPOLYLINE
5
139
100
AcDbEntity
8
0
100
AcDbPolyline
90
3
43
0.0
10
11.894089373829779
20
-58.572792298344154
10
15.33586328934143
20
-59.01970682367832
10
20.3591890232808
20
-58.325318728804305
0
ARC
5
140
100
AcDbEntity
8
0
100
AcDbCircle
10
20.249046629141073
20
-59.319234546674799
30
0
40
0.99999999999998701
210
0
220
-0
230
1
100
AcDbArc
50
78.268069293673278
51
83.676475970376572
0
LINE
5
141
100
AcDbEntity
8
0
100
AcDbLine
10
20.452379609892851
20
-58.340124900650125
30
0
11
47.639320491547522
21
-61.352889869477664
31
0
0
LWPOLYLINE
5
142
100
AcDbEntity
8
0
100
AcDbPolyline
90
2
43
0.0
10
49.200625449860254
20
-60.848859063890295
10
55.15814239456439
20
-58.166255363326464
0
LINE
5
143
100
AcDbEntity
8
0
100
AcDbLine
10
55.158142394564393
20
-58.166255363326471
30
0
11
73.512048229943559
21
-58.166255363326457
31
0
0
LWPOLYLINE
5
144
100
AcDbEntity
8
0
100
AcDbPolyline
90
2
43
0.0
10
75.288814818901
20
-57.08446039945091
10
75.83860938052976
20
-55.722431455690156
0
ARC
5
145
100
AcDbEntity
8
0
100
AcDbCircle
10
81.092068765860432
20
-57.350671145257124
30
0
40
5.5000000000000036
210
0
220
-0
230
1
100
AcDbArc
50
86.996678275572805
51
162.77987446147884
0
LWPOLYLINE
5
146
100
AcDbEntity
8
0
100
AcDbPolyline
90
2
43
0.0
10
81.38023495037704
20
-51.85822540131927
10
83.32449920633817
20
-51.50066831247935
0
LINE
5
147
100
AcDbEntity
8
0
100
AcDbLine
10
83.324499206338189
20
-51.500668312479348
30
0
11
85.10238789675013
21
-34.392926412501893
31
0
0
LWPOLYLINE
5
148
100
AcDbEntity
8
0
100
AcDbPolyline
90
2
43
0.0
10
85.10238789675012
20
-34.39292641250189
10
85.38860725774614
20
-20.48463565988707
0
LWPOLYLINE
5
149
100
AcDbEntity
8
0
100
AcDbPolyline
90
2
43
0.0
10
85.38860725774616
20
-20.484635659887083
10
85.01792301254866
20
-14.665820973494435
0
LWPOLYLINE
5
150
100
AcDbEntity
8
0
100
AcDbPolyline
90
2
43
0.0
10
85.01792301254868
20
-14.665820973494501
10
83.88853841961891
20
-1.854414782058813
0
LWPOLYLINE
5
151
100
AcDbEntity
8
0
100
AcDbPolyline
90
2
43
0.0
10
83.88853841961892
20
-1.8544147820587715
10
83.72184022543874
20
4.19603101842117
0
LWPOLYLINE
5
152
100
AcDbEntity
8
0
100
AcDbPolyline
90
3
43
0.0
10
83.72184022543873
20
4.196031018421175
10
85.60423320177111
20
14.89044034928342
10
91.14334642551238
20
24.32493526186476
0
LINE
5
153
100
AcDbEntity
8
0
100
AcDbLine
10
91.143346425512391
20
24.324935261864763
30
0
11
95.648502081039197
21
29.105386362506131
31
0
0
LWPOLYLINE
5
154
100
AcDbEntity
8
0
100
AcDbPolyline
90
2
43
0.0
10
95.6485020810392
20
29.105386362506124
10
96.90618456043512
20
30.9165477156334
0
LWPOLYLINE
5
155
100
AcDbEntity
8
0
100
AcDbPolyline
90
3
43
0.0
10
96.90618456043518
20
30.91654771563338
10
96.3485266377864
20
32.23599569773087
10
93.54928346127747
20
32.32080776877128
0
ARC
5
156
100
AcDbEntity
8
0
100
AcDbCircle
10
92.537498265087663
20
37.726942313598222
30
0
40
5.5000000000000124
210
0
220
0
230
1
100
AcDbArc
50
199.30786546996654
51
280.60055924812559
0
LWPOLYLINE
5
157
100
AcDbEntity
8
0
100
AcDbPolyline
90
2
43
0.0
10
87.34684262887556
20
35.908400571910754
10
86.61303401183993
20
37.517817639761134
0
LINE
5
158
100
AcDbEntity
8
0
100
AcDbLine
10
83.622944593850661
20
38.024535736207696
30
0
11
80.393363208993861
21
35.344643117213266
31
0
0
LWPOLYLINE
5
159
100
AcDbEntity
8
0
100
AcDbPolyline
90
2
43
0.0
10
80.39336320899385
20
35.34464311721326
10
79.88671881229877
20
34.91974236449975
0
LWPOLYLINE
5
160
100
AcDbEntity
8
0
100
AcDbPolyline
90
2
43
0.0
10
79.88671881229857
20
34.91974236449957
10
74.18469426545344
20
29.783577734272903
0
LWPOLYLINE
5
161
100
AcDbEntity
8
0
100
AcDbPolyline
90
7
43
0.0
10
74.18469426545347
20
29.783577734272882
10
73.07480237368328
20
28.11479922855754
10
71.16638169691511
20
24.501135857111997
10
66.25375988333673
20
14.370675318290635
10
60.358234901133976
20
4.363899362783404
10
56.648338761473205
20
0.6066323318151177
10
51.292252600107226
20
-1.2249857750519708
0
LINE
5
162
100
AcDbEntity
8
0
100
AcDbLine
10
51.292252600107233
20
-1.2249857750519708
30
0
11
35.109981510934155
21
-1.1447138650812425
31
0
0
LINE
5
163
100
AcDbEntity
8
0
100
AcDbLine
10
8.8929718097276567
20
-24.249817999019267
30
0
11
10.892971809727658
21
-24.249817999019264
31
0
0
LWPOLYLINE
5
164
100
AcDbEntity
8
0
100
AcDbPolyline
90
2
43
0.0
10
10.892971809727658
20
-24.24981799901926
10
11.922787498959822
20
-23.28055041666067
0
LINE
5
165
100
AcDbEntity
8
0
100
AcDbLine
10
11.922787498959824
20
-23.28055041666067
30
0
11
11.9227780144879
21
-19.249817999019275
31
0
0
LINE
5
166
100
AcDbEntity
8
0
100
AcDbLine
10
11.9227780144879
20
-19.249817999019275
30
0
11
11.922787498959828
21
-15.219085581377882
31
0
0
LWPOLYLINE
5
167
100
AcDbEntity
8
0
100
AcDbPolyline
90
2
43
0.0
10
11.922787498959828
20
-15.219085581377882
10
10.892971809727662
20
-14.249817999019289
0
LINE
5
168
100
AcDbEntity
8
0
100
AcDbLine
10
10.892971809727662
20
-14.249817999019289
30
0
11
8.8929718097276567
21
-14.249817999019285
31
0
0
LINE
5
169
100
AcDbEntity
8
0
100
AcDbLine
10
73.487911241789007
20
-15.21908558137782
30
0
11
73.487920726260938
21
-19.249817999019211
31
0
0
LINE
5
170
100
AcDbEntity
8
0
100
AcDbLine
10
73.487920726260938
20
-19.249817999019211
30
0
11
73.487911241789035
21
-23.28055041666061
31
0
0
LWPOLYLINE
5
171
100
AcDbEntity
8
0
100
AcDbPolyline
90
2
43
0.0
10
73.48791124178902
20
-23.280550416660606
10
74.51772693102119
20
-24.249817999019196
0
LINE
5
172
100
AcDbEntity
8
0
100
AcDbLine
10
74.517726931021201
20
-24.249817999019196
30
0
11
76.517726931021187
21
-24.249817999019196
31
0
0
LINE
5
173
100
AcDbEntity
8
0
100
AcDbLine
10
76.517726931021173
20
-14.249817999019216
30
0
11
74.517726931021173
21
-14.249817999019225
31
0
0
LWPOLYLINE
5
174
100
AcDbEntity
8
0
100
AcDbPolyline
90
2
43
0.0
10
74.51772693102117
20
-14.249817999019225
10
73.487911241789
20
-15.219085581377817
0
LWPOLYLINE
5
175
100
AcDbEntity
8
0
100
AcDbPolyline
90
2
43
0.0
10
76.51772693102119
20
-24.249817999019196
10
78.49092161380464
20
-27.507290522989226
0
LWPOLYLINE
5
176
100
AcDbEntity
8
0
100
AcDbPolyline
90
2
43
0.0
10
77.82769171978406
20
-12.862973235476366
10
76.51772693102117
20
-14.249817999019214
0
LWPOLYLINE
5
177
100
AcDbEntity
8
0
100
AcDbPolyline
90
2
43
0.0
10
8.89297180972766
20
-14.249817999019285
10
6.8929718097276576
20
-10.874295192250711
0
LINE
5
178
100
AcDbEntity
8
0
100
AcDbLine
10
6.8929718097276558
20
-31.49744322246881
30
0
11
6.8929718097276549
21
-26.657532748608993
31
0
0
LWPOLYLINE
5
179
100
AcDbEntity
8
0
100
AcDbPolyline
90
2
43
0.0
10
6.8929718097276576
20
-26.657532748608993
10
8.892971809727658
20
-24.249817999019267
0
LWPOLYLINE
5
180
100
AcDbEntity
8
0
100
AcDbPolyline
90
2
43
0.0
10
83.62294459385065
20
38.024535736207696
10
86.61303401183993
20
37.51781763976114
0
LWPOLYLINE
5
181
100
AcDbEntity
8
0
100
AcDbPolyline
90
2
43
0.0
10
29.058465730752385
20
2.4235117988895336
10
30.625203661320867
20
1.6542878467470679
0
LWPOLYLINE
5
182
100
AcDbEntity
8
0
100
AcDbPolyline
90
2
43
0.0
10
11.261022509440576
20
3.3712714212687187
10
13.130244679602969
20
3.3073270191144464
0
LWPOLYLINE
5
183
100
AcDbEntity
8
0
100
AcDbPolyline
90
2
43
0.0
10
-0.10702819027234411
20
-3.996341972434315
10
1.6933493377889366
20
-2.006329191395691
0
LWPOLYLINE
5
184
100
AcDbEntity
8
0
100
AcDbPolyline
90
2
43
0.0
10
1.8491152294383921
20
-37.498365841208056
10
-0.10702819027233854
20
-35.49884674893479
0
LWPOLYLINE
5
185
100
AcDbEntity
8
0
100
AcDbPolyline
90
2
43
0.0
10
49.20062544986025
20
-60.84885906389028
10
47.63932049154751
20
-61.35288986947766
0
LWPOLYLINE
5
186
100
AcDbEntity
8
0
100
AcDbPolyline
90
2
43
0.0
10
75.28881481890103
20
-57.084460399450926
10
73.51204822994352
20
-58.16625536332643
0
CIRCLE
5
187
100
AcDbEntity
8
0
100
AcDbCircle
10
43.982639654627235
20
-12.435476085430818
30
0
40
2.0000000000000018
210
0
220
-0
230
1
0
CIRCLE
5
188
100
AcDbEntity
8
0
100
AcDbCircle
10
43.982639654627235
20
-42.435476085430821
30
0
40
2.0000000000000018
210
0
220
-0
230
1
0
ENDSEC
0
SECTION
2
OBJECTS
0
DICTIONARY
5
C
100
AcDbDictionary
3
ACAD_GROUP
350
D
3
ACAD_MLINESTYLE
350
17
0
DICTIONARY
5
D
100
AcDbDictionary
0
DICTIONARY
5
1A
330
C
100
AcDbDictionary
0
DICTIONARY
5
17
100
AcDbDictionary
0
ENDSEC
0
EOF
