0
SECTION
2
HEADER
9
$INSUNITS
70
4
9
$ACADVER
1
AC1014
9
$HANDSEED
5
FFFF
0
ENDSEC
0
SECTION
2
TABLES
0
TABLE
2
VPORT
5
8
100
AcDbSymbolTable
0
ENDTAB
0
TABLE
2
LTYPE
5
5
100
AcDbSymbolTable
0
LTYPE
5
14
100
AcDbSymbolTableRecord
100
AcDbLinetypeTableRecord
2
BYBLOCK
70
0
0
LTYPE
5
15
100
AcDbSymbolTableRecord
100
AcDbLinetypeTableRecord
2
BYLAYER
70
0
0
ENDTAB
0
TABLE
2
LAYER
5
2
100
AcDbSymbolTable
70
2
0
LAYER
5
50
100
AcDbSymbolTableRecord
100
AcDbLayerTableRecord
2
0
70
0
6
CONTINUOUS
0
ENDTAB
0
TABLE
2
STYLE
5
3
100
AcDbSymbolTable
70
1
0
STYLE
5
11
100
AcDbSymbolTableRecord
100
AcDbTextStyleTableRecord
2
STANDARD
70
0
0
ENDTAB
0
TABLE
2
VIEW
5
6
100
AcDbSymbolTable
70
0
0
ENDTAB
0
TABLE
2
UCS
5
7
100
AcDbSymbolTable
70
0
0
ENDTAB
0
TABLE
2
APPID
5
9
100
AcDbSymbolTable
70
2
0
APPID
5
12
100
AcDbSymbolTableRecord
100
AcDbRegAppTableRecord
2
ACAD
70
0
0
ENDTAB
0
TABLE
2
DIMSTYLE
5
A
100
AcDbSymbolTable
70
1
0
ENDTAB
0
TABLE
2
BLOCK_RECORD
5
1
100
AcDbSymbolTable
70
1
0
BLOCK_RECORD
5
1F
100
AcDbSymbolTableRecord
100
AcDbBlockTableRecord
2
*MODEL_SPACE
0
BLOCK_RECORD
5
1B
100
AcDbSymbolTableRecord
100
AcDbBlockTableRecord
2
*PAPER_SPACE
0
ENDTAB
0
ENDSEC
0
SECTION
2
BLOCKS
0
BLOCK
5
20
100
AcDbEntity
100
AcDbBlockBegin
2
*MODEL_SPACE
0
ENDBLK
5
21
100
AcDbEntity
100
AcDbBlockEnd
0
BLOCK
5
1C
100
AcDbEntity
100
AcDbBlockBegin
2
*PAPER_SPACE
0
ENDBLK
5
1D
100
AcDbEntity
100
AcDbBlockEnd
0
ENDSEC
0
SECTION
2
ENTITIES
0
SPLINE
5
100
100
AcDbEntity
8
0
100
AcDbSpline
70
4
71
5
72
16
73
10
74
0
42
0.000000001
43
0.0000000001
44
0.0000000001
40
0
40
0
40
0
40
0
40
0
40
0
40
0.20000000000000001
40
0.40000000000000002
40
0.60000000000000009
40
0.80000000000000004
40
1
40
1
40
1
40
1
40
1
40
1
41
1
41
1
41
1
41
1
41
1
41
1
41
1
41
1
41
1
41
1
10
37.982639654627206
20
-41.946855940135762
30
0
10
37.982639654627206
20
-42.477866466170681
30
0
10
37.954528366867109
20
-43.570980438347398
30
0
10
37.828065125471667
20
-45.303787423265888
30
0
10
37.480952672739811
20
-47.723862904315624
30
0
10
36.614376135085976
20
-50.510342972665121
30
0
10
35.363653371979638
20
-52.092562441616906
30
0
10
33.956451538512134
20
-52.637828163478055
30
0
10
32.776589210422756
20
-52.663002203472622
30
0
10
32.12617176777691
20
-52.590925139162678
30
0
0
LINE
5
101
100
AcDbEntity
8
0
100
AcDbLine
10
32.12617176777691
20
-52.590925139162678
30
0
11
21.394923600719203
21
-51.401724460416183
31
0
0
ARC
5
102
100
AcDbEntity
8
0
100
AcDbCircle
10
20.249046629141073
20
-59.319234546674799
30
0
40
7.9999999999999973
210
0
220
-0
230
1
100
AcDbArc
50
81.764936636547787
51
83.676475970370674
0
SPLINE
5
103
100
AcDbEntity
8
0
100
AcDbSpline
70
0
71
3
72
11
73
7
74
0
42
0.000000001
43
0.0000000001
44
0.0000000001
40
0
40
0
40
0
40
0
40
0.21882640120874877
40
0.21882640120874877
40
0.21882640120874877
40
0.3352435544872191
40
0.3352435544872191
40
0.3352435544872191
40
0.3352435544872191
10
21.130185782259492
20
-51.367908003710937
30
0
10
19.621207427769647
20
-51.200688118806809
30
0
10
18.127777294102206
20
-51.304798500336972
30
0
10
16.938763924682256
20
-51.497060781022967
30
0
10
16.306200619188481
20
-51.599345639141788
30
0
10
15.749724128590286
20
-51.721408219112149
30
0
10
15.27453450529466
20
-51.833681035191518
30
0
0
SPLINE
5
104
100
AcDbEntity
8
0
100
AcDbSpline
70
0
71
3
72
11
73
7
74
0
42
0.000000001
43
0.0000000001
44
0.0000000001
40
0.51064604314314932
40
0.51064604314314932
40
0.51064604314314932
40
0.51064604314314932
40
0.57106080042959684
40
0.57106080042959684
40
0.57106080042959684
40
0.6851101565364438
40
0.6851101565364438
40
0.6851101565364438
40
0.6851101565364438
10
15.274534505294675
20
-51.833681035191631
30
0
10
15.11418151295973
20
-51.602727069587672
30
0
10
14.944904983682433
20
-51.346453669381134
30
0
10
14.76909558291795
20
-51.071780612263339
30
0
10
14.437207318273417
20
-50.553260192564295
30
0
10
14.081105310335973
20
-49.96483533491223
30
0
10
13.662366072111096
20
-49.306844802156647
30
0
0
SPLINE
5
105
100
AcDbEntity
8
0
100
AcDbSpline
70
0
71
3
72
11
73
7
74
0
42
0.000000001
43
0.0000000001
44
0.0000000001
40
-0.51747635304875306
40
-0.51747635304875306
40
-0.51747635304875306
40
-0.51747635304875306
40
-0.40325715687523545
40
-0.40325715687523545
40
-0.40325715687523545
40
0
40
0
40
0
40
0
10
13.662366072111219
20
-49.306844802156704
30
0
10
13.674246047738755
20
-49.14423442373333
30
0
10
13.697034405069202
20
-48.927168603216131
30
0
10
13.73130653513976
20
-48.671113056869217
30
0
10
13.852306176139832
20
-47.767094861318895
30
0
10
14.118562531277314
20
-46.36935837962875
30
0
10
14.341159825829745
20
-44.986398105739369
30
0
0
ARC
5
106
100
AcDbEntity
8
0
100
AcDbCircle
10
2.0000000298023224
20
-43.000000640749946
30
0
40
12.5
210
-0
220
0
230
1
100
AcDbArc
50
-9.1437386929625255
51
66.956010447421008
0
LINE
5
107
100
AcDbEntity
8
0
100
AcDbLine
10
6.8929718097276549
20
-10.874295192250711
30
0
11
6.8929718097276549
21
-8.2229154066234429
31
0
0
ARC
5
108
100
AcDbEntity
8
0
100
AcDbCircle
10
2.6053786953980236
20
3.5187431340578157
30
0
40
12.500000000000004
210
-0
220
0
230
1
100
AcDbArc
50
290.06021042003795
51
319.26924917650905
0
SPLINE
5
109
100
AcDbEntity
8
0
100
AcDbSpline
70
0
71
3
72
8
73
4
74
0
42
0.000000001
43
0.0000000001
44
0.0000000001
40
0
40
0
40
0
40
0
40
0.089505787487997285
40
0.089505787487997285
40
0.089505787487997285
40
0.089505787487997285
10
12.077681742619786
20
-4.6375719028686833
30
0
10
12.282280704720547
20
-4.3999617365875441
30
0
10
12.476042991511441
20
-4.2016354963276443
30
0
10
12.67170635965552
20
-4.0228487112622204
30
0
0
SPLINE
5
110
100
AcDbEntity
8
0
100
AcDbSpline
70
0
71
3
72
11
73
7
74
0
42
0.000000001
43
0.0000000001
44
0.0000000001
40
0.9579660879032621
40
0.9579660879032621
40
0.9579660879032621
40
0.9579660879032621
40
0.97177149038633004
40
0.97177149038633004
40
0.97177149038633004
40
1
40
1
40
1
40
1
10
12.671706359655516
20
-4.0228487112622169
30
0
10
13.034218123426605
20
-4.1239422968995871
30
0
10
13.400164553366306
20
-4.2098734041036163
30
0
10
13.772126439090886
20
-4.2807893743434056
30
0
10
14.532693157806484
20
-4.4257943570037703
30
0
10
15.317191655200599
20
-4.5097245286963741
30
0
10
16.14817065216878
20
-4.5137669512717853
30
0
0
LINE
5
111
100
AcDbEntity
8
0
100
AcDbLine
10
16.14817065216878
20
-4.5137669512717853
30
0
11
26.805795116825266
21
-4.5656125717910623
31
0
0
SPLINE
5
112
100
AcDbEntity
8
0
100
AcDbSpline
70
0
71
3
72
14
73
10
74
0
42
0.000000001
43
0.0000000001
44
0.0000000001
40
0.80042790787023477
40
0.80042790787023477
40
0.80042790787023477
40
0.80042790787023477
40
0.8600258939685107
40
0.8600258939685107
40
0.8600258939685107
40
0.88073818062426534
40
0.88073818062426534
40
0.88073818062426534
40
0.97036555211386188
40
0.97036555211386188
40
0.97036555211386188
40
0.97036555211386188
10
26.805795116825266
20
-4.5656125717910605
30
0
10
27.169998623274168
20
-4.9128438806126358
30
0
10
27.594902312911259
20
-5.2767537354611571
30
0
10
28.055820033875595
20
-5.62122130299365
30
0
10
28.216004304961334
20
-5.740935264310707
30
0
10
28.3807257826377
20
-5.858703492612868
30
0
10
28.549304121170053
20
-5.9739247182975337
30
0
10
29.360462065328097
20
-6.5283412190379817
30
0
10
30.612360230893096
20
-7.2377191989604537
30
0
10
32.195602264714339
20
-7.6896526777060412
30
0
0
SPLINE
5
113
100
AcDbEntity
8
0
100
AcDbSpline
70
4
71
5
72
16
73
10
74
0
42
0.000000001
43
0.0000000001
44
0.0000000001
40
-1
40
-1
40
-1
40
-1
40
-1
40
-1
40
-0.80000000000000004
40
-0.60000000000000009
40
-0.40000000000000002
40
-0.20000000000000001
40
0
40
0
40
0
40
0
40
0
40
0
41
1
41
1
41
1
41
1
41
1
41
1
41
1
41
1
41
1
41
1
10
32.195602264714324
20
-7.6896526777060696
30
0
10
32.670321405653809
20
-7.8251603690184908
30
0
10
33.562353093856686
20
-8.1601426983931642
30
0
10
34.728322844498599
20
-8.8543443600270315
30
0
10
35.975080652848398
20
-10.110470144286044
30
0
10
37.112794348979563
20
-12.047063007444352
30
0
10
37.700035542060796
20
-13.775799695122036
30
0
10
37.931234660286002
20
-15.139859830140852
30
0
10
37.982639654627206
20
-16.077236901401658
30
0
10
37.982639654627206
20
-16.552929262631014
30
0
0
LINE
5
114
100
AcDbEntity
8
0
100
AcDbLine
10
37.982639654627206
20
-16.552929262631014
30
0
11
37.982639654627206
21
-41.946855940135762
31
0
0
SPLINE
5
115
100
AcDbEntity
8
0
100
AcDbSpline
70
4
71
5
72
16
73
10
74
0
42
0.000000001
43
0.0000000001
44
0.0000000001
40
0
40
0
40
0
40
0
40
0
40
0
40
0.20000000000000001
40
0.40000000000000002
40
0.60000000000000009
40
0.80000000000000004
40
1
40
1
40
1
40
1
40
1
40
1
41
1
41
1
41
1
41
1
41
1
41
1
41
1
41
1
41
1
41
1
10
57.933364083023463
20
-51.166255363326471
30
0
10
57.317704445970392
20
-51.166255363326471
30
0
10
56.151736887486123
20
-51.060738563906995
30
0
10
54.598684801707719
20
-50.586195719995757
30
0
10
52.883419349629996
20
-49.406453118246588
30
0
10
51.259103411513316
20
-47.312585693368241
30
0
10
50.399160032993073
20
-45.315499791738667
30
0
10
50.05840485848212
20
-43.682489525411306
30
0
10
49.982639654627228
20
-42.535178508800456
30
0
10
49.982639654627228
20
-41.946855940135762
30
0
0
LINE
5
116
100
AcDbEntity
8
0
100
AcDbLine
10
49.982639654627228
20
-41.946855940135748
30
0
11
49.982639654627228
21
-16.552929262631014
31
0
0
SPLINE
5
117
100
AcDbEntity
8
0
100
AcDbSpline
70
4
71
5
72
16
73
10
74
0
42
0.000000001
43
0.0000000001
44
0.0000000001
40
0
40
0
40
0
40
0
40
0
40
0
40
0.20000000000000001
40
0.40000000000000002
40
0.60000000000000009
40
0.80000000000000004
40
1
40
1
40
1
40
1
40
1
40
1
41
1
41
1
41
1
41
1
41
1
41
1
41
1
41
1
41
1
41
1
10
49.982639654627228
20
-16.552929262631014
30
0
10
49.982639654627228
20
-16.093321345855887
30
0
10
50.025487105131241
20
-15.181175109244837
30
0
10
50.218203568700631
20
-13.834167922759679
30
0
10
50.712685355550995
20
-12.094166699945845
30
0
10
51.70805217897508
20
-10.118849031610521
30
0
10
52.856783636114699
20
-8.8388826649213943
30
0
10
53.976805589638907
20
-8.1439092004653162
30
0
10
54.853566431502081
20
-7.8181281458874476
30
0
10
55.324494432783467
20
-7.6896526777060696
30
0
0
SPLINE
5
118
100
AcDbEntity
8
0
100
AcDbSpline
70
0
71
3
72
32
73
28
74
0
42
0.000000001
43
0.0000000001
44
0.0000000001
40
-0.95521141449658264
40
-0.95521141449658264
40
-0.95521141449658264
40
-0.95521141449658264
40
-0.92212407845452637
40
-0.92212407845452637
40
-0.92212407845452637
40
-0.91618406428921018
40
-0.91618406428921018
40
-0.91618406428921018
40
-0.82001100220572887
40
-0.82001100220572887
40
-0.82001100220572887
40
-0.80445626942682757
40
-0.80445626942682757
40
-0.80445626942682757
40
-0.60891253885365515
40
-0.60891253885365515
40
-0.60891253885365515
40
-0.36465400559479916
40
-0.36465400559479916
40
-0.36465400559479916
40
-0.3046044238785377
40
-0.3046044238785377
40
-0.3046044238785377
40
-0.18951574067709762
40
-0.18951574067709762
40
-0.18951574067709762
40
-0.12330635197352444
40
-0.12330635197352444
40
-0.12330635197352444
40
-0.12330635197352444
10
55.324494432783453
20
-7.6896526777060696
30
0
10
56.253852358437868
20
-7.4361113841715154
30
0
10
57.129301768587766
20
-7.1040044014406494
30
0
10
57.949454337824093
20
-6.7185244844685439
30
0
10
58.096692479715969
20
-6.6493210839787391
30
0
10
58.242284531978612
20
-6.5781984070445727
30
0
10
58.386269948139216
20
-6.5051998566364926
30
0
10
60.569139564004587
20
-5.3985161247904632
30
0
10
62.280737717125177
20
-3.9476425199157861
30
0
10
63.610751897771735
20
-2.5769211940897039
30
0
10
63.825864266286615
20
-2.3552249781674277
30
0
10
64.031896103357326
20
-2.1349035027961545
30
0
10
64.229899948321815
20
-1.9168669976255592
30
0
10
66.748739322086507
20
0.85681113089880967
30
0
10
68.568208223859926
20
3.8792101518768503
30
0
10
70.226219496982637
20
6.8790447944248578
30
0
10
72.313752903204858
20
10.656012497224141
30
0
10
74.173534890480326
20
14.612724923338309
30
0
10
75.773333226652227
20
17.960518122627988
30
0
10
76.16663461774705
20
18.783554184491351
30
0
10
76.542994562040008
20
19.568202450435081
30
0
10
76.89890832528647
20
20.298476308711848
30
0
10
77.575737489671695
20
21.687213402667886
30
0
10
78.203041966784198
20
22.918646327127874
30
0
10
78.702327910401749
20
23.838046800477137
30
0
10
78.989562208298295
20
24.36696885971805
30
0
10
79.239598792165651
20
24.799213179704736
30
0
10
79.394124591385079
20
25.049463082077722
30
0
0
SPLINE
5
119
100
AcDbEntity
8
0
100
AcDbSpline
70
0
71
3
72
8
73
4
74
0
42
0.000000001
43
0.0000000001
44
0.0000000001
40
-0.41843390938894048
40
-0.41843390938894048
40
-0.41843390938894048
40
-0.41843390938894048
40
-0.10333943473456894
40
-0.10333943473456894
40
-0.10333943473456894
40
-0.10333943473456894
10
79.394124591385079
20
25.049463082077704
30
0
10
81.015605097874342
20
26.503509484202464
30
0
10
82.411382895551327
20
27.828296020522188
30
0
10
83.659189874976349
20
28.927758253125418
30
0
0
ARC
5
120
100
AcDbEntity
8
0
100
AcDbCircle
10
92.537498265087663
20
37.726942313598222
30
0
40
12.49999999999998
210
0
220
0
230
1
100
AcDbArc
50
224.74354621376855
51
232.3326637151136
0
SPLINE
5
121
100
AcDbEntity
8
0
100
AcDbSpline
70
0
71
3
72
11
73
7
74
0
42
0.000000001
43
0.0000000001
44
0.0000000001
40
0.052478916354529129
40
0.052478916354529129
40
0.052478916354529129
40
0.052478916354529129
40
0.44325351539139318
40
0.44325351539139318
40
0.44325351539139318
40
0.89537870350125115
40
0.89537870350125115
40
0.89537870350125115
40
0.89537870350125115
10
84.899049856245043
20
27.832291945573679
30
0
10
82.139159607309708
20
24.54025225118507
30
0
10
80.291738461262099
20
20.889373979058217
30
0
10
79.034850665447237
20
17.310524703320983
30
0
10
77.598837899578484
20
13.221636845398063
30
0
10
76.763908848107988
20
8.8261500066965404
30
0
10
76.722133180483439
20
4.2600722926375179
30
0
0
SPLINE
5
122
100
AcDbEntity
8
0
100
AcDbSpline
70
0
71
3
72
8
73
4
74
0
42
0.000000001
43
0.0000000001
44
0.0000000001
40
-1
40
-1
40
-1
40
-1
40
-0.75770064419810401
40
-0.75770064419810401
40
-0.75770064419810401
40
-0.75770064419810401
10
76.722133180483468
20
4.2600722926374788
30
0
10
76.70195947592839
20
2.0550877162847261
30
0
10
76.771975170210453
20
-0.14039728915693994
30
0
10
76.90132724898217
20
-2.2773569257720507
30
0
0
SPLINE
5
123
100
AcDbEntity
8
0
100
AcDbSpline
70
0
71
3
72
8
73
4
74
0
42
0.000000001
43
0.0000000001
44
0.0000000001
40
-0.75770064419810468
40
-0.75770064419810468
40
-0.75770064419810468
40
-0.75770064419810468
40
-0.33802623915386204
40
-0.33802623915386204
40
-0.33802623915386204
40
-0.33802623915386204
10
76.90132724898217
20
-2.2773569257724136
30
0
10
77.125371413359687
20
-5.9786761518712499
30
0
10
77.50856728147194
20
-9.4961537986556017
30
0
10
77.827691719784056
20
-12.862973235476359
30
0
0
SPLINE
5
124
100
AcDbEntity
8
0
100
AcDbSpline
70
0
71
3
72
8
73
4
74
0
42
0.000000001
43
0.0000000001
44
0.0000000001
40
0.63779523162326468
40
0.63779523162326468
40
0.63779523162326468
40
0.63779523162326468
40
1
40
1
40
1
40
1
10
78.490921613804659
20
-27.507290522989223
30
0
10
78.455431518034672
20
-29.622229088923749
30
0
10
78.346862643919422
20
-31.677713196584222
30
0
10
78.139884446580155
20
-33.669361829087848
30
0
0
LINE
5
125
100
AcDbEntity
8
0
100
AcDbLine
10
78.139884446580155
20
-33.669361829087848
30
0
11
76.902761032099178
21
-45.573587435278313
31
0
0
ARC
5
126
100
AcDbEntity
8
0
100
AcDbCircle
10
81.092068765860432
20
-57.350671145257124
30
0
40
12.500000000000007
210
0
220
0
230
1
100
AcDbArc
50
109.58133237014988
51
150.34651849153246
0
LINE
5
127
100
AcDbEntity
8
0
100
AcDbLine
10
70.229150123239236
20
-51.166255363326471
30
0
11
57.933364083023463
21
-51.166255363326471
31
0
0
CIRCLE
5
128
100
AcDbEntity
8
0
100
AcDbCircle
10
43.982639654627214
20
-27.435476085430814
30
0
40
2.0000000000000018
210
0
220
-0
230
1
0
SPLINE
5
129
100
AcDbEntity
8
0
100
AcDbSpline
70
0
71
3
72
20
73
16
74
0
42
0.000000001
43
0.0000000001
44
0.0000000001
40
-1.094252029269394
40
-1.094252029269394
40
-1.094252029269394
40
-1.094252029269394
40
-1.0733071338761437
40
-1.0733071338761437
40
-1.0733071338761437
40
-1
40
-1
40
-1
40
-0.88073818062426534
40
-0.88073818062426534
40
-0.88073818062426534
40
-0.69093168489116197
40
-0.69093168489116197
40
-0.69093168489116197
40
-0.64578118930146799
40
-0.64578118930146799
40
-0.64578118930146799
40
-0.64578118930146799
10
35.109981510934155
20
-1.1447138650812425
30
0
10
35.088291205008787
20
-1.1417428079887384
30
0
10
35.066600899083433
20
-1.1387717508962349
30
0
10
35.044910593158072
20
-1.1358006938037315
30
0
10
34.968994522419607
20
-1.1254019939800088
30
0
10
34.893078451681248
20
-1.1150032941563117
30
0
10
34.81716238094252
20
-1.1046045943325589
30
0
10
33.797049493025284
20
-0.96487334106075995
30
0
10
33.020312043515005
20
-0.55097022275867857
30
0
10
32.499245881679393
20
-0.19482789538615375
30
0
10
31.69158439000881
20
0.357198822985687
30
0
10
31.215909431254772
20
0.9272215555514518
30
0
10
30.874386739274303
20
1.342956868563846
30
0
10
30.787609914845969
20
1.4485902308939771
30
0
10
30.704589887100049
20
1.552602263068692
30
0
10
30.62520366132086
20
1.6542878467470625
30
0
0
LINE
5
130
100
AcDbEntity
8
0
100
AcDbLine
10
29.058465730752374
20
2.4235117988895336
30
0
11
16.18222280428785
21
2.4861502233050725
31
0
0
SPLINE
5
131
100
AcDbEntity
8
0
100
AcDbSpline
70
0
71
3
72
8
73
4
74
0
42
0.000000001
43
0.0000000001
44
0.0000000001
40
-1
40
-1
40
-1
40
-1
40
-0.91902900949845256
40
-0.91902900949845256
40
-0.91902900949845256
40
-0.91902900949845256
10
16.18222280428785
20
2.4861502233050725
30
0
10
15.132081085609816
20
2.4912587959723158
30
0
10
14.056305251561165
20
2.776182871962483
30
0
10
13.130244679602971
20
3.3073270191144468
30
0
0
SPLINE
5
132
100
AcDbEntity
8
0
100
AcDbSpline
70
0
71
3
72
8
73
4
74
0
42
0.000000001
43
0.0000000001
44
0.0000000001
40
-0.3147703817067018
40
-0.3147703817067018
40
-0.3147703817067018
40
-0.3147703817067018
40
0
40
0
40
0
40
0
10
11.261022509440577
20
3.3712714212687183
30
0
10
9.6076290071216714
20
2.5677854178701836
30
0
10
8.107943126372847
20
1.4800722272007236
30
0
10
6.7731920361755984
20
-0.070035482189844608
30
0
0
ARC
5
133
100
AcDbEntity
8
0
100
AcDbCircle
10
2.6053786953980236
20
3.5187431340578157
30
0
40
5.5000000000000018
210
0
220
0
230
1
100
AcDbArc
50
268.61838423686891
51
319.26924917650905
0
SPLINE
5
134
100
AcDbEntity
8
0
100
AcDbSpline
70
0
71
3
72
8
73
4
74
0
42
0.000000001
43
0.0000000001
44
0.0000000001
40
0
40
0
40
0
40
0
40
0.063344172146055408
40
0.063344172146055408
40
0.063344172146055408
40
0.063344172146055408
10
2.4727659556976698
20
-1.9796578936291582
30
0
10
2.1928486826483384
20
-1.9729067315582935
30
0
10
1.934096378145584
20
-1.9821793367988576
30
0
10
1.6933493377889361
20
-2.0063291913956922
30
0
0
LINE
5
135
100
AcDbEntity
8
0
100
AcDbLine
10
-0.10702819027234417
20
-3.9963419724343154
30
0
11
-0.10702819027234331
21
-35.498846748934788
31
0
0
SPLINE
5
136
100
AcDbEntity
8
0
100
AcDbSpline
70
0
71
3
72
8
73
4
74
0
42
0.000000001
43
0.0000000001
44
0.0000000001
40
-0.01217696791625345
40
-0.01217696791625345
40
-0.01217696791625345
40
-0.01217696791625345
40
0
40
0
40
0
40
0
10
1.8491152294383941
20
-37.498365841208063
30
0
10
1.8986686873870153
20
-37.49945272515707
30
0
10
1.9489565011631673
20
-37.500000640749946
30
0
10
2.0000000298023233
20
-37.500000640749946
30
0
0
ARC
5
137
100
AcDbEntity
8
0
100
AcDbCircle
10
2.0000000298023224
20
-43.000000640749946
30
0
40
5.5000000000000027
210
0
220
0
230
1
100
AcDbArc
50
-9.1437386929626268
51
90
0
SPLINE
5
138
100
AcDbEntity
8
0
100
AcDbSpline
70
0
71
3
72
14
73
10
74
0
42
0.000000001
43
0.0000000001
44
0.0000000001
40
0
40
0
40
0
40
0
40
0.53100871559348284
40
0.53100871559348284
40
0.53100871559348284
40
0.92658020699959698
40
0.92658020699959698
40
0.92658020699959698
40
1
40
1
40
1
40
1
10
7.4301103400543891
20
-43.8740155253453
30
0
10
7.1584641992737588
20
-45.561708190300337
30
0
10
6.7737119707979589
20
-47.328236576172998
30
0
10
6.6726364777468374
20
-48.918759872848632
30
0
10
6.5973409461355459
20
-50.103609865148599
30
0
10
6.6990877988620001
20
-51.146785562525999
30
0
10
7.16985472290615
20
-52.099603486360408
30
0
10
7.2572311159619209
20
-52.276450646114839
30
0
10
7.3577325404626537
20
-52.451661209030448
30
0
10
7.473166423334022
20
-52.626656309796388
30
0
0
SPLINE
5
139
100
AcDbEntity
8
0
100
AcDbSpline
70
0
71
3
72
8
73
4
74
0
42
0.000000001
43
0.0000000001
44
0.0000000001
40
-0.71521959230136534
40
-0.71521959230136534
40
-0.71521959230136534
40
-0.71521959230136534
40
-0.3336848341941781
40
-0.3336848341941781
40
-0.3336848341941781
40
-0.3336848341941781
10
7.473166423334022
20
-52.626656309796374
30
0
10
8.6701912713541667
20
-54.441318336993689
30
0
10
9.8561187216772765
20
-56.755949825961494
30
0
10
11.894089373829759
20
-58.572792298344147
30
0
0
SPLINE
5
140
100
AcDbEntity
8
0
100
AcDbSpline
70
0
71
3
72
14
73
10
74
0
42
0.000000001
43
0.0000000001
44
0.0000000001
40
-1
40
-1
40
-1
40
-1
40
-0.76776741486092415
40
-0.76776741486092415
40
-0.76776741486092415
40
-0.39739671479140593
40
-0.39739671479140593
40
-0.39739671479140593
40
0
40
0
40
0
40
0
10
11.894089373829779
20
-58.572792298344154
30
0
10
12.349721921146335
20
-58.978986844320715
30
0
10
12.763149791241213
20
-59.153025097440946
30
0
10
13.260068381551701
20
-59.22183778216138
30
0
10
14.052567358646737
20
-59.331582080956949
30
0
10
15.105864136520156
20
-59.087234764711866
30
0
10
16.2823130770829
20
-58.793332963943918
30
0
10
17.544607702472305
20
-58.477985097402261
30
0
10
18.958425173956861
20
-58.170090809884968
30
0
10
20.359189023280798
20
-58.325318728804305
30
0
0
ARC
5
141
100
AcDbEntity
8
0
100
AcDbCircle
10
20.249046629141073
20
-59.319234546674799
30
0
40
0.99999999999998701
210
0
220
-0
230
1
100
AcDbArc
50
78.268069293673278
51
83.676475970376572
0
LINE
5
142
100
AcDbEntity
8
0
100
AcDbLine
10
20.452379609892851
20
-58.340124900650125
30
0
11
47.639320491547522
21
-61.352889869477664
31
0
0
SPLINE
5
143
100
AcDbEntity
8
0
100
AcDbSpline
70
0
71
3
72
14
73
10
74
0
42
0.000000001
43
0.0000000001
44
0.0000000001
40
-0.45172074024051817
40
-0.45172074024051817
40
-0.45172074024051817
40
-0.45172074024051817
40
-0.35367796707736227
40
-0.35367796707736227
40
-0.35367796707736227
40
-0.13633244679135975
40
-0.13633244679135975
40
-0.13633244679135975
40
0
40
0
40
0
40
0
10
49.200625449860254
20
-60.848859063890295
30
0
10
49.42124366870226
20
-60.6494701194096
30
0
10
49.67583245823883
20
-60.425700625549212
30
0
10
49.96176013437325
20
-60.19005857228241
30
0
10
50.604897546931923
20
-59.660028662352424
30
0
10
51.500146179201053
20
-59.011360605418687
30
0
10
52.697659205902781
20
-58.588479833408741
30
0
10
53.462298132447721
20
-58.31846097569597
30
0
10
54.307745282408739
20
-58.166255363326457
30
0
10
55.158142394564393
20
-58.166255363326457
30
0
0
LINE
5
144
100
AcDbEntity
8
0
100
AcDbLine
10
55.158142394564393
20
-58.166255363326471
30
0
11
73.512048229943559
21
-58.166255363326457
31
0
0
SPLINE
5
145
100
AcDbEntity
8
0
100
AcDbSpline
70
0
71
3
72
8
73
4
74
0
42
0.000000001
43
0.0000000001
44
0.0000000001
40
-0.11026281131621267
40
-0.11026281131621267
40
-0.11026281131621267
40
-0.11026281131621267
40
0
40
0
40
0
40
0
10
75.288814818901017
20
-57.084460399450911
30
0
10
75.497063917457893
20
-56.681489357102741
30
0
10
75.680984390607676
20
-56.231003067090327
30
0
10
75.838609380529761
20
-55.722431455690156
30
0
0
ARC
5
146
100
AcDbEntity
8
0
100
AcDbCircle
10
81.092068765860432
20
-57.350671145257124
30
0
40
5.5000000000000036
210
0
220
-0
230
1
100
AcDbArc
50
86.996678275572805
51
162.77987446147884
0
SPLINE
5
147
100
AcDbEntity
8
0
100
AcDbSpline
70
0
71
3
72
8
73
4
74
0
42
0.000000001
43
0.0000000001
44
0.0000000001
40
0
40
0
40
0
40
0
40
0.24469685523949788
40
0.24469685523949788
40
0.24469685523949788
40
0.24469685523949788
10
81.380234950377059
20
-51.858225401319267
30
0
10
82.168162888265798
20
-51.899564760526602
30
0
10
82.775592873009302
20
-51.766073824650647
30
0
10
83.324499206338189
20
-51.500668312479348
30
0
0
LINE
5
148
100
AcDbEntity
8
0
100
AcDbLine
10
83.324499206338189
20
-51.500668312479348
30
0
11
85.10238789675013
21
-34.392926412501893
31
0
0
SPLINE
5
149
100
AcDbEntity
8
0
100
AcDbSpline
70
0
71
3
72
11
73
7
74
0
42
0.000000001
43
0.0000000001
44
0.0000000001
40
-1
40
-1
40
-1
40
-1
40
-0.32639962947122303
40
-0.32639962947122303
40
-0.32639962947122303
40
-0.26312342325683979
40
-0.26312342325683979
40
-0.26312342325683979
40
-0.26312342325683979
10
85.10238789675013
20
-34.392926412501893
30
0
10
85.5335293393223
20
-30.244265947037615
30
0
10
85.571827666588263
20
-26.003903624760088
30
0
10
85.432868206131502
20
-21.697691678595255
30
0
10
85.419824124459907
20
-21.293468892062222
30
0
10
85.405058334607446
20
-20.889082148940638
30
0
10
85.388607257746173
20
-20.484635659887076
30
0
0
SPLINE
5
150
100
AcDbEntity
8
0
100
AcDbSpline
70
0
71
3
72
8
73
4
74
0
42
0.000000001
43
0.0000000001
44
0.0000000001
40
0
40
0
40
0
40
0
40
0.2378187067494606
40
0.2378187067494606
40
0.2378187067494606
40
0.2378187067494606
10
85.388607257746173
20
-20.484635659887083
30
0
10
85.309672833284168
20
-18.544048359232626
30
0
10
85.180280569380727
20
-16.606552107989337
30
0
10
85.017923012548664
20
-14.665820973494437
30
0
0
SPLINE
5
151
100
AcDbEntity
8
0
100
AcDbSpline
70
0
71
3
72
8
73
4
74
0
42
0.000000001
43
0.0000000001
44
0.0000000001
40
0.2378187067494601
40
0.2378187067494601
40
0.2378187067494601
40
0.2378187067494601
40
0.75770064419810468
40
0.75770064419810468
40
0.75770064419810468
40
0.75770064419810468
10
85.017923012548678
20
-14.665820973494501
30
0
10
84.663002399452125
20
-10.423299112794655
30
0
10
84.14934681202908
20
-6.1630970449409599
30
0
10
83.888538419618911
20
-1.8544147820588148
30
0
0
SPLINE
5
152
100
AcDbEntity
8
0
100
AcDbSpline
70
0
71
3
72
8
73
4
74
0
42
0.000000001
43
0.0000000001
44
0.0000000001
40
0.75770064419810401
40
0.75770064419810401
40
0.75770064419810401
40
0.75770064419810401
40
1
40
1
40
1
40
1
10
83.888538419618925
20
-1.8544147820587717
30
0
10
83.76698446492918
20
0.15371602889940772
30
0
10
83.703323474597255
20
2.172151373598739
30
0
10
83.721840225438754
20
4.19603101842117
30
0
0
SPLINE
5
153
100
AcDbEntity
8
0
100
AcDbSpline
70
0
71
3
72
14
73
10
74
0
42
0.000000001
43
0.0000000001
44
0.0000000001
40
-0.89537870350125115
40
-0.89537870350125115
40
-0.89537870350125115
40
-0.89537870350125115
40
-0.44325351539139318
40
-0.44325351539139318
40
-0.44325351539139318
40
-0.049978447618693189
40
-0.049978447618693189
40
-0.049978447618693189
40
0
40
0
40
0
40
0
10
83.72184022543874
20
4.1960310184211753
30
0
10
83.756235007832899
20
7.9553784639587999
30
0
10
84.439981251706229
20
11.575844998131945
30
0
10
85.639386551480897
20
14.991019210744213
30
0
10
86.68465248073467
20
17.967298578177719
30
0
10
88.174365014981078
20
20.857570648663504
30
0
10
90.30387491914
20
23.383352332491167
30
0
10
90.574392864612747
20
23.70420985491328
30
0
10
90.854383612515477
20
24.01831486890655
30
0
10
91.143346425512391
20
24.324935261864763
30
0
0
LINE
5
154
100
AcDbEntity
8
0
100
AcDbLine
10
91.143346425512391
20
24.324935261864763
30
0
11
95.648502081039197
21
29.105386362506131
31
0
0
SPLINE
5
155
100
AcDbEntity
8
0
100
AcDbSpline
70
0
71
3
72
8
73
4
74
0
42
0.000000001
43
0.0000000001
44
0.0000000001
40
0
40
0
40
0
40
0
40
0.30644720745190485
40
0.30644720745190485
40
0.30644720745190485
40
0.30644720745190485
10
95.648502081039197
20
29.105386362506124
30
0
10
96.195004617567292
20
29.685283895911894
30
0
10
96.610954186387872
20
30.3020828698962
30
0
10
96.906184560435122
20
30.916547715633399
30
0
0
SPLINE
5
156
100
AcDbEntity
8
0
100
AcDbSpline
70
0
71
3
72
14
73
10
74
0
42
0.000000001
43
0.0000000001
44
0.0000000001
40
-0.4648240741873752
40
-0.4648240741873752
40
-0.4648240741873752
40
-0.4648240741873752
40
-0.33974399269631594
40
-0.33974399269631594
40
-0.33974399269631594
40
-0.18682950965133285
40
-0.18682950965133285
40
-0.18682950965133285
40
0
40
0
40
0
40
0
10
96.906184560435179
20
30.916547715633381
30
0
10
96.889846071313045
20
31.325145402173284
30
0
10
96.81199817900611
20
31.635649041423747
30
0
10
96.706743653999638
20
31.840577949149317
30
0
10
96.578066560991374
20
32.091110229047686
30
0
10
96.442786907705738
20
32.228941028339065
30
0
10
96.076796048576796
20
32.353665698916444
30
0
10
95.629631781423541
20
32.506053154841986
30
0
10
94.790564724625014
20
32.553119783233562
30
0
10
93.549283461277483
20
32.320807768771289
30
0
0
ARC
5
157
100
AcDbEntity
8
0
100
AcDbCircle
10
92.537498265087663
20
37.726942313598222
30
0
40
5.5000000000000124
210
0
220
0
230
1
100
AcDbArc
50
199.30786546996654
51
280.60055924812559
0
SPLINE
5
158
100
AcDbEntity
8
0
100
AcDbSpline
70
0
71
3
72
8
73
4
74
0
42
0.000000001
43
0.0000000001
44
0.0000000001
40
0
40
0
40
0
40
0
40
0.095703818797989559
40
0.095703818797989559
40
0.095703818797989559
40
0.095703818797989559
10
87.346842628875564
20
35.908400571910761
30
0
10
87.119439836818856
20
36.557475353765525
30
0
10
86.872232419740172
20
37.087760533935125
30
0
10
86.613034011839929
20
37.517817639761134
30
0
0
LINE
5
159
100
AcDbEntity
8
0
100
AcDbLine
10
83.622944593850661
20
38.024535736207696
30
0
11
80.393363208993861
21
35.344643117213266
31
0
0
SPLINE
5
160
100
AcDbEntity
8
0
100
AcDbSpline
70
0
71
3
72
8
73
4
74
0
42
0.000000001
43
0.0000000001
44
0.0000000001
40
0
40
0
40
0
40
0
40
0.038303244364169847
40
0.038303244364169847
40
0.038303244364169847
40
0.038303244364169847
10
80.393363208993861
20
35.344643117213259
30
0
10
80.224092878777796
20
35.204183331716656
30
0
10
80.055277652761788
20
35.062596883841536
30
0
10
79.886718812298767
20
34.919742364499747
30
0
0
SPLINE
5
161
100
AcDbEntity
8
0
100
AcDbSpline
70
0
71
3
72
8
73
4
74
0
42
0.000000001
43
0.0000000001
44
0.0000000001
40
0.038303244364169847
40
0.038303244364169847
40
0.038303244364169847
40
0.038303244364169847
40
0.45496369430012779
40
0.45496369430012779
40
0.45496369430012779
40
0.45496369430012779
10
79.886718812298568
20
34.919742364499569
30
0
10
78.061303378613147
20
33.37269301566775
30
0
10
76.24337935486642
20
31.603292153329644
30
0
10
74.184694265453444
20
29.783577734272907
30
0
0
SPLINE
5
162
100
AcDbEntity
8
0
100
AcDbSpline
70
0
71
3
72
26
73
22
74
0
42
0.000000001
43
0.0000000001
44
0.0000000001
40
0.031639523972349398
40
0.031639523972349398
40
0.031639523972349398
40
0.031639523972349398
40
0.044378984043434724
40
0.044378984043434724
40
0.044378984043434724
40
0.10396025685678947
40
0.10396025685678947
40
0.10396025685678947
40
0.3046044238785377
40
0.3046044238785377
40
0.3046044238785377
40
0.60891253885365515
40
0.60891253885365515
40
0.60891253885365515
40
0.80445626942682757
40
0.80445626942682757
40
0.80445626942682757
40
0.91618406428921018
40
0.91618406428921018
40
0.91618406428921018
40
1
40
1
40
1
40
1
10
74.184694265453487
20
29.783577734272882
30
0
10
74.171518163307852
20
29.76832316180267
30
0
10
74.153941028645434
20
29.747599643118292
30
0
10
74.132563064966035
20
29.721707142908933
30
0
10
74.032580312237982
20
29.600610321679028
30
0
10
73.853370768130702
20
29.370720512010401
30
0
10
73.651859736782242
20
29.063688762613754
30
0
10
72.95577434703921
20
28.003100101476495
30
0
10
71.83984003342637
20
25.89593269389324
30
0
10
70.606451973871728
20
23.36523242316574
30
0
10
68.734074828162449
20
19.523436394054293
30
0
10
66.5078027186714
20
14.622130204047068
30
0
10
64.099708520245699
20
10.265172856374321
30
0
10
62.553952283182213
20
7.4684409016245326
30
0
10
60.948818009139075
20
4.8824195613012318
30
0
10
59.047822199051765
20
2.7890941369908551
30
0
10
57.963769336910701
20
1.5953643004626448
30
0
10
56.743361876689207
20
0.51009777513240251
30
0
10
55.220931395640747
20
-0.26175274401777848
30
0
10
54.062672948187043
20
-0.84897324118067996
30
0
10
52.712532510440141
20
-1.2320310519767688
30
0
10
51.29225260010724
20
-1.2249857750519708
30
0
0
LINE
5
163
100
AcDbEntity
8
0
100
AcDbLine
10
51.292252600107233
20
-1.2249857750519708
30
0
11
35.109981510934155
21
-1.1447138650812425
31
0
0
LINE
5
164
100
AcDbEntity
8
0
100
AcDbLine
10
8.8929718097276567
20
-24.249817999019267
30
0
11
10.892971809727658
21
-24.249817999019264
31
0
0
SPLINE
5
165
100
AcDbEntity
8
0
100
AcDbSpline
70
4
71
5
72
16
73
10
74
0
42
0.000000001
43
0.0000000001
44
0.0000000001
40
-1
40
-1
40
-1
40
-1
40
-1
40
-1
40
-0.80000000000000004
40
-0.60000000000000009
40
-0.40000000000000002
40
-0.20000000000000001
40
0
40
0
40
0
40
0
40
0
40
0
41
1
41
1
41
1
41
1
41
1
41
1
41
1
41
1
41
1
41
1
10
10.892971809727658
20
-24.249817999019264
30
0
10
10.965285233822939
20
-24.249817999019264
30
0
10
11.104195404138435
20
-24.239926735999457
30
0
10
11.295422850544188
20
-24.195441391170405
30
0
10
11.51807288088462
20
-24.083837503328812
30
0
10
11.740908524611747
20
-23.878019451006871
30
0
10
11.863094912694557
20
-23.668611526548386
30
0
10
11.911929490999849
20
-23.485502924860036
30
0
10
11.922787664611935
20
-23.350949625972987
30
0
10
11.922787498959828
20
-23.28055041666067
30
0
0
LINE
5
166
100
AcDbEntity
8
0
100
AcDbLine
10
11.922787498959824
20
-23.28055041666067
30
0
11
11.9227780144879
21
-19.249817999019275
31
0
0
LINE
5
167
100
AcDbEntity
8
0
100
AcDbLine
10
11.9227780144879
20
-19.249817999019275
30
0
11
11.922787498959828
21
-15.219085581377882
31
0
0
SPLINE
5
168
100
AcDbEntity
8
0
100
AcDbSpline
70
4
71
5
72
16
73
10
74
0
42
0.000000001
43
0.0000000001
44
0.0000000001
40
0
40
0
40
0
40
0
40
0
40
0
40
0.20000000000000001
40
0.40000000000000002
40
0.60000000000000009
40
0.80000000000000004
40
1
40
1
40
1
40
1
40
1
40
1
41
1
41
1
41
1
41
1
41
1
41
1
41
1
41
1
41
1
41
1
10
11.922787498959828
20
-15.219085581377882
30
0
10
11.922787664611935
20
-15.148686372065566
30
0
10
11.911929490999849
20
-15.014133073178497
30
0
10
11.863094912694553
20
-14.831024471490382
30
0
10
11.740908524611736
20
-14.621616547031849
30
0
10
11.51807288088461
20
-14.415798494709781
30
0
10
11.295422850544179
20
-14.304194606868073
30
0
10
11.104195404138435
20
-14.259709262039078
30
0
10
10.965285233822941
20
-14.249817999019289
30
0
10
10.89297180972766
20
-14.249817999019289
30
0
0
LINE
5
169
100
AcDbEntity
8
0
100
AcDbLine
10
10.892971809727662
20
-14.249817999019289
30
0
11
8.8929718097276567
21
-14.249817999019285
31
0
0
LINE
5
170
100
AcDbEntity
8
0
100
AcDbLine
10
73.487911241789007
20
-15.21908558137782
30
0
11
73.487920726260938
21
-19.249817999019211
31
0
0
LINE
5
171
100
AcDbEntity
8
0
100
AcDbLine
10
73.487920726260938
20
-19.249817999019211
30
0
11
73.487911241789035
21
-23.28055041666061
31
0
0
SPLINE
5
172
100
AcDbEntity
8
0
100
AcDbSpline
70
4
71
5
72
16
73
10
74
0
42
0.000000001
43
0.0000000001
44
0.0000000001
40
0
40
0
40
0
40
0
40
0
40
0
40
0.20000000000000001
40
0.40000000000000002
40
0.60000000000000009
40
0.80000000000000004
40
1
40
1
40
1
40
1
40
1
40
1
41
1
41
1
41
1
41
1
41
1
41
1
41
1
41
1
41
1
41
1
10
73.487911241789035
20
-23.28055041666061
30
0
10
73.487911076136925
20
-23.350949625972923
30
0
10
73.49876924974896
20
-23.48550292486
30
0
10
73.54760382805469
20
-23.668611526548453
30
0
10
73.669790216137457
20
-23.878019451007031
30
0
10
73.892625859864566
20
-24.083837503328954
30
0
10
74.115275890204714
20
-24.195441391170426
30
0
10
74.306503336610461
20
-24.239926735999408
30
0
10
74.445413506925917
20
-24.249817999019196
30
0
10
74.517726931021201
20
-24.249817999019196
30
0
0
LINE
5
173
100
AcDbEntity
8
0
100
AcDbLine
10
74.517726931021201
20
-24.249817999019196
30
0
11
76.517726931021187
21
-24.249817999019196
31
0
0
LINE
5
174
100
AcDbEntity
8
0
100
AcDbLine
10
76.517726931021173
20
-14.249817999019216
30
0
11
74.517726931021173
21
-14.249817999019225
31
0
0
SPLINE
5
175
100
AcDbEntity
8
0
100
AcDbSpline
70
4
71
5
72
16
73
10
74
0
42
0.000000001
43
0.0000000001
44
0.0000000001
40
-1
40
-1
40
-1
40
-1
40
-1
40
-1
40
-0.80000000000000004
40
-0.60000000000000009
40
-0.40000000000000002
40
-0.20000000000000001
40
0
40
0
40
0
40
0
40
0
40
0
41
1
41
1
41
1
41
1
41
1
41
1
41
1
41
1
41
1
41
1
10
74.517726931021173
20
-14.249817999019225
30
0
10
74.445413506925902
20
-14.249817999019225
30
0
10
74.306503336610405
20
-14.259709262039038
30
0
10
74.115275890204629
20
-14.30419460686811
30
0
10
73.892625859864424
20
-14.415798494709914
30
0
10
73.669790216137415
20
-14.621616547031975
30
0
10
73.547603828054676
20
-14.831024471490434
30
0
10
73.49876924974896
20
-15.014133073178455
30
0
10
73.487911076136911
20
-15.148686372065503
30
0
10
73.487911241789007
20
-15.21908558137782
30
0
0
SPLINE
5
176
100
AcDbEntity
8
0
100
AcDbSpline
70
4
71
5
72
16
73
10
74
0
42
0.000000001
43
0.0000000001
44
0.0000000001
40
0
40
0
40
0
40
0
40
0
40
0
40
0.20000000000000001
40
0.40000000000000002
40
0.60000000000000009
40
0.80000000000000004
40
1
40
1
40
1
40
1
40
1
40
1
41
1
41
1
41
1
41
1
41
1
41
1
41
1
41
1
41
1
41
1
10
76.517726931021187
20
-24.249817999019196
30
0
10
76.732271106984854
20
-24.249817999019196
30
0
10
77.122740674785788
20
-24.290157868074061
30
0
10
77.592691981577119
20
-24.47157621179624
30
0
10
78.018931211906249
20
-24.920022624528041
30
0
10
78.323838243582856
20
-25.696265153225003
30
0
10
78.447676833551071
20
-26.403297516332216
30
0
10
78.489018411202466
20
-26.951224522263292
30
0
10
78.494044997517804
20
-27.321160716128205
30
0
10
78.490921613804659
20
-27.507290522989226
30
0
0
SPLINE
5
177
100
AcDbEntity
8
0
100
AcDbSpline
70
4
71
5
72
14
73
8
74
0
42
0.000000001
43
0.0000000001
44
0.0000000001
40
-0.54802828046404628
40
-0.54802828046404628
40
-0.54802828046404628
40
-0.54802828046404628
40
-0.54802828046404628
40
-0.54802828046404628
40
-0.40000000000000002
40
-0.20000000000000001
40
0
40
0
40
0
40
0
40
0
40
0
41
1
41
1
41
1
41
1
41
1
41
1
41
1
41
1
10
77.82769171978407
20
-12.862973235476368
30
0
10
77.828217513961249
20
-12.989193657681245
30
0
10
77.817914234350255
20
-13.277725214249871
30
0
10
77.748810567684473
20
-13.694219134376038
30
0
10
77.554871576823999
20
-14.020883814380324
30
0
10
77.163408942781629
20
-14.204996245706534
30
0
10
76.753646537314125
20
-14.249817999019216
30
0
10
76.517726931021173
20
-14.249817999019216
30
0
0
SPLINE
5
178
100
AcDbEntity
8
0
100
AcDbSpline
70
4
71
5
72
16
73
10
74
0
42
0.000000001
43
0.0000000001
44
0.0000000001
40
0
40
0
40
0
40
0
40
0
40
0
40
0.20000000000000001
40
0.40000000000000002
40
0.60000000000000009
40
0.80000000000000004
40
1
40
1
40
1
40
1
40
1
40
1
41
1
41
1
41
1
41
1
41
1
41
1
41
1
41
1
41
1
41
1
10
8.892971809727662
20
-14.249817999019285
30
0
10
8.6911092979438109
20
-14.249817999019285
30
0
10
8.321204542865841
20
-14.205283282207537
30
0
10
7.8677186047072079
20
-14.005002124954952
30
0
10
7.4392834206879845
20
-13.512052343915975
30
0
10
7.1094110723950674
20
-12.675128070812693
30
0
10
6.9614189315141397
20
-11.941216464986141
30
0
10
6.9054209636693216
20
-11.399406327067506
30
0
10
6.8929718097276567
20
-11.047739178064248
30
0
10
6.8929718097276567
20
-10.874295192250711
30
0
0
LINE
5
179
100
AcDbEntity
8
0
100
AcDbLine
10
6.8929718097276558
20
-31.49744322246881
30
0
11
6.8929718097276549
21
-26.657532748608993
31
0
0
SPLINE
5
180
100
AcDbEntity
8
0
100
AcDbSpline
70
4
71
5
72
16
73
10
74
0
42
0.000000001
43
0.0000000001
44
0.0000000001
40
-1
40
-1
40
-1
40
-1
40
-1
40
-1
40
-0.80000000000000004
40
-0.60000000000000009
40
-0.40000000000000002
40
-0.20000000000000001
40
0
40
0
40
0
40
0
40
0
40
0
41
1
41
1
41
1
41
1
41
1
41
1
41
1
41
1
41
1
41
1
10
6.8929718097276584
20
-26.657532748608993
30
0
10
6.8929718097276584
20
-26.504496450246062
30
0
10
6.9110314028694422
20
-26.205859611196338
30
0
10
6.9922558667478496
20
-25.780200237930902
30
0
10
7.1982459272497348
20
-25.25860704743295
30
0
10
7.5949417996373434
20
-24.710758609355775
30
0
10
8.025956455162925
20
-24.401775302903207
30
0
10
8.4261211521300989
20
-24.277460082561507
30
0
10
8.7309994196968681
20
-24.249817999019267
30
0
10
8.8929718097276584
20
-24.249817999019267
30
0
0
SPLINE
5
181
100
AcDbEntity
8
0
100
AcDbSpline
70
0
71
3
72
16
73
12
74
0
42
0.000000001
43
0.0000000001
44
0.0000000001
40
0
40
0
40
0
40
0
40
0.078128894677385041
40
0.078128894677385041
40
0.15625778935477094
40
0.15625778935477094
40
0.23438668403215879
40
0.23438668403215879
40
0.28975257049963221
40
0.28975257049963221
40
0.34511845696710292
40
0.34511845696710292
40
0.34511845696710292
40
0.34511845696710292
10
83.622944593850661
20
38.024535736207696
30
0
10
83.82336044574825
20
38.190839940445493
30
0
10
84.05434312200984
20
38.31640851338652
30
0
10
84.551439478804085
20
38.471938639786202
30
0
10
84.812800647227306
20
38.50041324046601
30
0
10
85.331726491205529
20
38.45557601700731
30
0
10
85.584329952855683
20
38.382692861163243
30
0
10
85.979925898513798
20
38.178944571654071
30
0
10
86.131512896888935
20
38.072137098830893
30
0
10
86.40108022839145
20
37.820000972059155
30
0
10
86.517767876343612
20
37.675881413557697
30
0
10
86.613034011839915
20
37.517817639761141
30
0
0
SPLINE
5
182
100
AcDbEntity
8
0
100
AcDbSpline
70
0
71
3
72
12
73
8
74
0
42
0.000000001
43
0.0000000001
44
0.0000000001
40
0
40
0
40
0
40
0
40
0.078128894677384528
40
0.078128894677384528
40
0.12956439869235478
40
0.12956439869235478
40
0.18099990270732549
40
0.18099990270732549
40
0.18099990270732549
40
0.18099990270732549
10
29.058465730752388
20
2.4235117988895336
30
0
10
29.318892298220447
20
2.4222449146007468
30
0
10
29.576581595087156
20
2.3701230427639985
30
0
10
29.975325642277063
20
2.204217445669125
30
0
10
30.124498002171947
20
2.118272305591876
30
0
10
30.397247696412386
20
1.9104494996742283
30
0
10
30.519696379386829
20
1.7894318146140238
30
0
10
30.625203661320871
20
1.6542878467470679
30
0
0
SPLINE
5
183
100
AcDbEntity
8
0
100
AcDbSpline
70
0
71
3
72
12
73
8
74
0
42
0.000000001
43
0.0000000001
44
0.0000000001
40
0
40
0
40
0
40
0
40
0.078128894677385499
40
0.078128894677385499
40
0.13660040017313682
40
0.13660040017313682
40
0.19507190566888838
40
0.19507190566888838
40
0.19507190566888838
40
0.19507190566888838
10
11.261022509440577
20
3.3712714212687187
30
0
10
11.495258318322136
20
3.4851010653716545
30
0
10
11.749488165890618
20
3.5520909739305679
30
0
10
12.20392136183408
20
3.5807288792070087
30
0
10
12.399191900096348
20
3.5644871316015343
30
0
10
12.778833921971637
20
3.4760348852172411
30
0
10
12.961174620207478
20
3.4042975361905201
30
0
10
13.130244679602971
20
3.3073270191144468
30
0
0
SPLINE
5
184
100
AcDbEntity
8
0
100
AcDbSpline
70
0
71
3
72
14
73
10
74
0
42
0.000000001
43
0.0000000001
44
0.0000000001
40
0
40
0
40
0
40
0
40
0.078128894677385569
40
0.078128894677385569
40
0.15625778935477108
40
0.15625778935477108
40
0.22562810099823583
40
0.22562810099823583
40
0.29499841264170057
40
0.29499841264170057
40
0.29499841264170057
40
0.29499841264170057
10
-0.10702819027234411
20
-3.9963419724343154
30
0
10
-0.10702819027234411
20
-3.7359123235096972
30
0
10
-0.05616048874309415
20
-3.4779725239739228
30
0
10
0.14158393659669552
20
-2.996109939409572
30
0
10
0.28657011592194787
20
-2.7767940233248294
30
0
10
0.63194045488872419
20
-2.426861403273191
30
0
10
0.82168968647872986
20
-2.2916942236989613
30
0
10
1.238925874314263
20
-2.0922166485045963
30
0
10
1.4632696597970578
20
-2.0294089798780708
30
0
10
1.6933493377889366
20
-2.0063291913956913
30
0
0
SPLINE
5
185
100
AcDbEntity
8
0
100
AcDbSpline
70
0
71
3
72
14
73
10
74
0
42
0.000000001
43
0.0000000001
44
0.0000000001
40
0
40
0
40
0
40
0
40
0.078128894677385249
40
0.078128894677385249
40
0.15625778935477075
40
0.15625778935477075
40
0.23438668403215596
40
0.23438668403215596
40
0.31073793135079497
40
0.31073793135079497
40
0.31073793135079497
40
0.31073793135079497
10
1.8491152294383921
20
-37.498365841208063
30
0
10
1.5887482018289933
20
-37.492655064304181
30
0
10
1.3319858666326572
20
-37.436143415346208
30
0
10
0.85457534492171083
20
-37.227880115853281
30
0
10
0.63849146320349504
20
-37.078119575973744
30
0
10
0.27589188555916738
20
-36.704199859392553
30
0
10
0.13284283922737317
20
-36.483615558983416
30
0
10
-0.058448915546405432
20
-36.005531581224133
30
0
10
-0.10702819027233856
20
-35.753350906663584
30
0
10
-0.10702819027233856
20
-35.498846748934788
30
0
0
SPLINE
5
186
100
AcDbEntity
8
0
100
AcDbSpline
70
0
71
3
72
12
73
8
74
0
42
0.000000001
43
0.0000000001
44
0.0000000001
40
0
40
0
40
0
40
0
40
0.078128894677383667
40
0.078128894677383667
40
0.12376258088017295
40
0.12376258088017295
40
0.16939626708296268
40
0.16939626708296268
40
0.16939626708296268
40
0.16939626708296268
10
49.200625449860247
20
-60.848859063890288
30
0
10
49.00741258522477
20
-61.023479769931555
30
0
10
48.781939634007394
20
-61.158692237968886
30
0
10
48.393773247557696
20
-61.298398020274817
30
0
10
48.245238045570282
20
-61.333414278243353
30
0
10
47.943113144008294
20
-61.369095305394922
30
0
10
47.790507300029816
20
-61.369643880983666
30
0
10
47.639320491547508
20
-61.352889869477664
30
0
0
SPLINE
5
187
100
AcDbEntity
8
0
100
AcDbSpline
70
0
71
3
72
12
73
8
74
0
42
0.000000001
43
0.0000000001
44
0.0000000001
40
0
40
0
40
0
40
0
40
0.07812889467738314
40
0.07812889467738314
40
0.14874975270806981
40
0.14874975270806981
40
0.21937061073875924
40
0.21937061073875924
40
0.21937061073875924
40
0.21937061073875924
10
75.288814818901031
20
-57.084460399450933
30
0
10
75.169250911301674
20
-57.315821748942511
30
0
10
75.005640083559229
20
-57.521617667971185
30
0
10
74.627813441258155
20
-57.84270473618696
30
0
10
74.422922304001901
20
-57.962285131385059
30
0
10
73.981015946784055
20
-58.124694483418189
30
0
10
73.747451090045814
20
-58.166255363326435
30
0
10
73.512048229943531
20
-58.166255363326435
30
0
0
ENDSEC
0
SECTION
2
OBJECTS
0
DICTIONARY
5
C
100
AcDbDictionary
3
ACAD_GROUP
350
D
3
ACAD_MLINESTYLE
350
17
0
DICTIONARY
5
D
100
AcDbDictionary
0
DICTIONARY
5
1A
330
C
100
AcDbDictionary
0
DICTIONARY
5
17
100
AcDbDictionary
0
ENDSEC
0
EOF
