0
SECTION
2
HEADER
9
$INSUNITS
70
4
9
$ACADVER
1
AC1014
9
$HANDSEED
5
FFFF
0
ENDSEC
0
SECTION
2
TABLES
0
TABLE
2
VPORT
5
8
100
AcDbSymbolTable
0
ENDTAB
0
TABLE
2
LTYPE
5
5
100
AcDbSymbolTable
0
LTYPE
5
14
100
AcDbSymbolTableRecord
100
AcDbLinetypeTableRecord
2
BYBLOCK
70
0
0
LTYPE
5
15
100
AcDbSymbolTableRecord
100
AcDbLinetypeTableRecord
2
BYLAYER
70
0
0
ENDTAB
0
TABLE
2
LAYER
5
2
100
AcDbSymbolTable
70
2
0
LAYER
5
50
100
AcDbSymbolTableRecord
100
AcDbLayerTableRecord
2
0
70
0
6
CONTINUOUS
0
ENDTAB
0
TABLE
2
STYLE
5
3
100
AcDbSymbolTable
70
1
0
STYLE
5
11
100
AcDbSymbolTableRecord
100
AcDbTextStyleTableRecord
2
STANDARD
70
0
0
ENDTAB
0
TABLE
2
VIEW
5
6
100
AcDbSymbolTable
70
0
0
ENDTAB
0
TABLE
2
UCS
5
7
100
AcDbSymbolTable
70
0
0
ENDTAB
0
TABLE
2
APPID
5
9
100
AcDbSymbolTable
70
2
0
APPID
5
12
100
AcDbSymbolTableRecord
100
AcDbRegAppTableRecord
2
ACAD
70
0
0
ENDTAB
0
TABLE
2
DIMSTYLE
5
A
100
AcDbSymbolTable
70
1
0
ENDTAB
0
TABLE
2
BLOCK_RECORD
5
1
100
AcDbSymbolTable
70
1
0
BLOCK_RECORD
5
1F
100
AcDbSymbolTableRecord
100
AcDbBlockTableRecord
2
*MODEL_SPACE
0
BLOCK_RECORD
5
1B
100
AcDbSymbolTableRecord
100
AcDbBlockTableRecord
2
*PAPER_SPACE
0
ENDTAB
0
ENDSEC
0
SECTION
2
BLOCKS
0
BLOCK
5
20
100
AcDbEntity
100
AcDbBlockBegin
2
*MODEL_SPACE
0
ENDBLK
5
21
100
AcDbEntity
100
AcDbBlockEnd
0
BLOCK
5
1C
100
AcDbEntity
100
AcDbBlockBegin
2
*PAPER_SPACE
0
ENDBLK
5
1D
100
AcDbEntity
100
AcDbBlockEnd
0
ENDSEC
0
SECTION
2
ENTITIES
0
CIRCLE
5
100
100
AcDbEntity
8
0
100
AcDbCircle
10
81.092068765860432
20
-57.350671145257124
30
0
40
2.0000000000000018
210
-0
220
0
230
1
0
SPLINE
5
101
100
AcDbEntity
8
0
100
AcDbSpline
70
4
71
5
72
16
73
10
74
0
42
0.000000001
43
0.0000000001
44
0.0000000001
40
0
40
0
40
0
40
0
40
0
40
0
40
0.20000000000000001
40
0.40000000000000002
40
0.60000000000000009
40
0.80000000000000004
40
1
40
1
40
1
40
1
40
1
40
1
41
1
41
1
41
1
41
1
41
1
41
1
41
1
41
1
41
1
41
1
10
37.982639654627206
20
-41.946855940135762
30
0
10
37.982639654627206
20
-42.477866466170681
30
0
10
37.954528366867109
20
-43.570980438347398
30
0
10
37.828065125471667
20
-45.303787423265888
30
0
10
37.480952672739811
20
-47.723862904315624
30
0
10
36.614376135085976
20
-50.510342972665121
30
0
10
35.363653371979638
20
-52.092562441616906
30
0
10
33.956451538512134
20
-52.637828163478055
30
0
10
32.776589210422756
20
-52.663002203472622
30
0
10
32.12617176777691
20
-52.590925139162678
30
0
0
LINE
5
102
100
AcDbEntity
8
0
100
AcDbLine
10
32.12617176777691
20
-52.590925139162678
30
0
11
21.394923600719203
21
-51.401724460416183
31
0
0
ARC
5
103
100
AcDbEntity
8
0
100
AcDbCircle
10
20.249046629146875
20
-59.319234546628614
30
0
40
7.9999999999534577
210
0
220
-0
230
1
100
AcDbArc
50
81.76493663654152
51
83.676475970375506
0
SPLINE
5
104
100
AcDbEntity
8
0
100
AcDbSpline
70
0
71
3
72
11
73
7
74
0
42
0.000000001
43
0.0000000001
44
0.0000000001
40
0
40
0
40
0
40
0
40
0.21882640120874877
40
0.21882640120874877
40
0.21882640120874877
40
0.3352435544872191
40
0.3352435544872191
40
0.3352435544872191
40
0.3352435544872191
10
21.130185782259492
20
-51.367908003710937
30
0
10
19.621207427769647
20
-51.200688118806809
30
0
10
18.127777294102206
20
-51.304798500336972
30
0
10
16.938763924682256
20
-51.497060781022967
30
0
10
16.306200619188481
20
-51.599345639141788
30
0
10
15.749724128590286
20
-51.721408219112149
30
0
10
15.27453450529466
20
-51.833681035191518
30
0
0
SPLINE
5
105
100
AcDbEntity
8
0
100
AcDbSpline
70
0
71
3
72
11
73
7
74
0
42
0.000000001
43
0.0000000001
44
0.0000000001
40
0.51064604314314932
40
0.51064604314314932
40
0.51064604314314932
40
0.51064604314314932
40
0.57106080042959684
40
0.57106080042959684
40
0.57106080042959684
40
0.6851101565364438
40
0.6851101565364438
40
0.6851101565364438
40
0.6851101565364438
10
15.274534505294675
20
-51.833681035191631
30
0
10
15.11418151295973
20
-51.602727069587672
30
0
10
14.944904983682433
20
-51.346453669381134
30
0
10
14.76909558291795
20
-51.071780612263339
30
0
10
14.437207318273417
20
-50.553260192564295
30
0
10
14.081105310335973
20
-49.96483533491223
30
0
10
13.662366072111096
20
-49.306844802156647
30
0
0
SPLINE
5
106
100
AcDbEntity
8
0
100
AcDbSpline
70
0
71
3
72
11
73
7
74
0
42
0.000000001
43
0.0000000001
44
0.0000000001
40
0
40
0
40
0
40
0
40
0.40325715687523545
40
0.40325715687523545
40
0.40325715687523545
40
0.51747635304875306
40
0.51747635304875306
40
0.51747635304875306
40
0.51747635304875306
10
14.341159825829745
20
-44.986398105739369
30
0
10
14.118562531277314
20
-46.36935837962875
30
0
10
13.852306176139832
20
-47.767094861318895
30
0
10
13.73130653513976
20
-48.671113056869217
30
0
10
13.697034405069202
20
-48.927168603216131
30
0
10
13.674246047738755
20
-49.14423442373333
30
0
10
13.662366072111219
20
-49.306844802156704
30
0
0
ARC
5
107
100
AcDbEntity
8
0
100
AcDbCircle
10
2.0000000298023144
20
-43.00000064074996
30
0
40
12.500000000000004
210
0
220
0
230
1
100
AcDbArc
50
-9.1437386929624225
51
66.956010447420979
0
LINE
5
108
100
AcDbEntity
8
0
100
AcDbLine
10
6.8929718097276549
20
-31.497443222468817
30
0
11
6.8929718097276567
21
-8.2229154066234411
31
0
0
ARC
5
109
100
AcDbEntity
8
0
100
AcDbCircle
10
2.6053786953979872
20
3.5187431340578632
30
0
40
12.500000000000055
210
0
220
0
230
1
100
AcDbArc
50
290.060210420038
51
319.26924917650905
0
SPLINE
5
110
100
AcDbEntity
8
0
100
AcDbSpline
70
0
71
3
72
8
73
4
74
0
42
0.000000001
43
0.0000000001
44
0.0000000001
40
0
40
0
40
0
40
0
40
0.089505787487997285
40
0.089505787487997285
40
0.089505787487997285
40
0.089505787487997285
10
12.077681742619786
20
-4.6375719028686833
30
0
10
12.282280704720547
20
-4.3999617365875441
30
0
10
12.476042991511441
20
-4.2016354963276443
30
0
10
12.67170635965552
20
-4.0228487112622204
30
0
0
SPLINE
5
111
100
AcDbEntity
8
0
100
AcDbSpline
70
0
71
3
72
11
73
7
74
0
42
0.000000001
43
0.0000000001
44
0.0000000001
40
0.9579660879032621
40
0.9579660879032621
40
0.9579660879032621
40
0.9579660879032621
40
0.97177149038633004
40
0.97177149038633004
40
0.97177149038633004
40
1
40
1
40
1
40
1
10
12.671706359655516
20
-4.0228487112622169
30
0
10
13.034218123426605
20
-4.1239422968995871
30
0
10
13.400164553366306
20
-4.2098734041036163
30
0
10
13.772126439090886
20
-4.2807893743434056
30
0
10
14.532693157806484
20
-4.4257943570037703
30
0
10
15.317191655200599
20
-4.5097245286963741
30
0
10
16.14817065216878
20
-4.5137669512717853
30
0
0
LINE
5
112
100
AcDbEntity
8
0
100
AcDbLine
10
16.14817065216878
20
-4.5137669512717853
30
0
11
26.805795116825266
21
-4.5656125717910605
31
0
0
SPLINE
5
113
100
AcDbEntity
8
0
100
AcDbSpline
70
0
71
3
72
14
73
10
74
0
42
0.000000001
43
0.0000000001
44
0.0000000001
40
0.80042790787023477
40
0.80042790787023477
40
0.80042790787023477
40
0.80042790787023477
40
0.8600258939685107
40
0.8600258939685107
40
0.8600258939685107
40
0.88073818062426534
40
0.88073818062426534
40
0.88073818062426534
40
0.97036555211397346
40
0.97036555211397346
40
0.97036555211397346
40
0.97036555211397346
10
26.805795116825266
20
-4.5656125717910605
30
0
10
27.169998623274168
20
-4.9128438806126358
30
0
10
27.594902312911259
20
-5.2767537354611571
30
0
10
28.055820033875595
20
-5.62122130299365
30
0
10
28.216004304961334
20
-5.740935264310707
30
0
10
28.3807257826377
20
-5.858703492612868
30
0
10
28.549304121170053
20
-5.9739247182975337
30
0
10
29.360462065329109
20
-6.5283412190386709
30
0
10
30.612360230896208
20
-7.2377191989622203
30
0
10
32.19560226472025
20
-7.6896526777077314
30
0
0
SPLINE
5
114
100
AcDbEntity
8
0
100
AcDbSpline
70
4
71
5
72
16
73
10
74
0
42
0.000000001
43
0.0000000001
44
0.0000000001
40
0
40
0
40
0
40
0
40
0
40
0
40
0.20000000000000001
40
0.40000000000000002
40
0.60000000000000009
40
0.80000000000000004
40
1
40
1
40
1
40
1
40
1
40
1
41
1
41
1
41
1
41
1
41
1
41
1
41
1
41
1
41
1
41
1
10
37.982639654627206
20
-16.552929262631014
30
0
10
37.982639654627206
20
-16.077236901401658
30
0
10
37.931234660286002
20
-15.139859830140852
30
0
10
37.700035542060796
20
-13.775799695122036
30
0
10
37.112794348979563
20
-12.047063007444352
30
0
10
35.975080652848398
20
-10.110470144286044
30
0
10
34.728322844498599
20
-8.8543443600270315
30
0
10
33.562353093856686
20
-8.1601426983931642
30
0
10
32.670321405653809
20
-7.8251603690184908
30
0
10
32.195602264714324
20
-7.6896526777060696
30
0
0
LINE
5
115
100
AcDbEntity
8
0
100
AcDbLine
10
37.982639654627206
20
-16.552929262631014
30
0
11
37.982639654627206
21
-41.946855940135762
31
0
0
SPLINE
5
116
100
AcDbEntity
8
0
100
AcDbSpline
70
0
71
3
72
8
73
4
74
0
42
0.000000001
43
0.0000000001
44
0.0000000001
40
0.89728866867054813
40
0.89728866867054813
40
0.89728866867054813
40
0.89728866867054813
40
1
40
1
40
1
40
1
10
49.982639654627221
20
-69.940121272410266
30
0
10
49.464545040795748
20
-70.027353932465218
30
0
10
48.924490403606846
20
-70.041232741374372
30
0
10
48.404208329528721
20
-69.983576839097083
30
0
0
SPLINE
5
117
100
AcDbEntity
8
0
100
AcDbSpline
70
0
71
3
72
8
73
4
74
0
42
0.000000001
43
0.0000000001
44
0.0000000001
40
0.89341490714151628
40
0.89341490714151628
40
0.89341490714151628
40
0.89341490714151628
40
0.89728866867054813
40
0.89728866867054813
40
0.89728866867054813
40
0.89728866867054813
10
50.041163577008618
20
-69.929938205334636
30
0
10
50.021688331889578
20
-69.933436966359565
30
0
10
50.002179611489638
20
-69.936831289521109
30
0
10
49.982639654627221
20
-69.940121272410266
30
0
0
SPLINE
5
118
100
AcDbEntity
8
0
100
AcDbSpline
70
0
71
3
72
11
73
7
74
0
42
0.000000001
43
0.0000000001
44
0.0000000001
40
0.8171783485151245
40
0.8171783485151245
40
0.8171783485151245
40
0.8171783485151245
40
0.8876648911288797
40
0.8876648911288797
40
0.8876648911288797
40
0.89341490714151617
40
0.89341490714151617
40
0.89341490714151617
40
0.89341490714151617
10
51.130565463690665
20
-69.61799007777239
30
0
10
50.815260158169082
20
-69.741996165628535
30
0
10
50.480130608532498
20
-69.844358887545056
30
0
10
50.127659198870838
20
-69.913667411785823
30
0
10
50.098905962091209
20
-69.919321329674517
30
0
10
50.070071647483587
20
-69.924744821135079
30
0
10
50.041163577008618
20
-69.929938205334636
30
0
0
SPLINE
5
119
100
AcDbEntity
8
0
100
AcDbSpline
70
0
71
3
72
14
73
10
74
0
42
0.000000001
43
0.0000000001
44
0.0000000001
40
0.19862249706136467
40
0.19862249706136467
40
0.19862249706136467
40
0.19862249706136467
40
0.39398882867434026
40
0.39398882867434026
40
0.39398882867434026
40
0.67636728762579179
40
0.67636728762579179
40
0.67636728762579179
40
0.8171783485143963
40
0.8171783485143963
40
0.8171783485143963
40
0.8171783485143963
10
55.189180056918573
20
-66.666255363326457
30
0
10
55.129121681174318
20
-66.696993105977924
30
0
10
54.957578364403119
20
-66.808671691503122
30
0
10
54.673924522818893
20
-67.056534445450339
30
0
10
54.263937121197998
20
-67.414790148534991
30
0
10
53.669246061699674
20
-68.045879327448247
30
0
10
52.763087869457351
20
-68.706657226885255
30
0
10
52.311222323989242
20
-69.036161245630069
30
0
10
51.760451296199435
20
-69.370262949436921
30
0
10
51.130565463700428
20
-69.617990077768553
30
0
0
LINE
5
120
100
AcDbEntity
8
0
100
AcDbLine
10
55.189180056918573
20
-66.666255363326457
30
0
11
82.004930311930281
21
-66.666255363326457
31
0
0
SPLINE
5
121
100
AcDbEntity
8
0
100
AcDbSpline
70
0
71
3
72
8
73
4
74
0
42
0.000000001
43
0.0000000001
44
0.0000000001
40
-0.11856548987200365
40
-0.11856548987200365
40
-0.11856548987200365
40
-0.11856548987200365
40
0
40
0
40
0
40
0
10
82.902323373723291
20
-66.645672404905909
30
0
10
82.598774741183234
20
-66.660673433934704
30
0
10
82.301002342714298
20
-66.666255363326457
30
0
10
82.004930311930309
20
-66.666255363326457
30
0
0
SPLINE
5
122
100
AcDbEntity
8
0
100
AcDbSpline
70
0
71
3
72
20
73
16
74
0
42
0.000000001
43
0.0000000001
44
0.0000000001
40
-1
40
-1
40
-1
40
-1
40
-0.99032961220498306
40
-0.99032961220498306
40
-0.99032961220498306
40
-0.80778318786144321
40
-0.80778318786144321
40
-0.80778318786144321
40
-0.61976440982799463
40
-0.61976440982799463
40
-0.61976440982799463
40
-0.36291265934012851
40
-0.36291265934012851
40
-0.36291265934012851
40
-0.11856548987200374
40
-0.11856548987200374
40
-0.11856548987200374
40
-0.11856548987200374
10
90.419632981627146
20
-60.334656328270881
30
0
10
90.414061288833508
20
-60.388269967175191
30
0
10
90.407989851875072
20
-60.442044611941903
30
0
10
90.401396177187223
20
-60.495965774327487
30
0
10
90.2769283933645
20
-61.513827270534293
30
0
10
89.933698907382436
20
-62.607909761929065
30
0
10
89.378149086533639
20
-63.49394511380811
30
0
10
88.80594506321016
20
-64.406541921736931
30
0
10
88.064463133423132
20
-65.049498767945494
30
0
10
87.386946253437486
20
-65.462335562459728
30
0
10
86.461392973974981
20
-66.026310365646239
30
0
10
85.634975166348951
20
-66.247423004044975
30
0
10
84.88831225212175
20
-66.399328140391475
30
0
10
84.177999905440458
20
-66.543837920930002
30
0
10
83.527895361298732
20
-66.614757347023101
30
0
10
82.902323373723291
20
-66.645672404905895
30
0
0
LINE
5
123
100
AcDbEntity
8
0
100
AcDbLine
10
90.419632981627146
20
-60.334656328270881
30
0
11
93.017709231694823
21
-35.334655955741781
31
0
0
SPLINE
5
124
100
AcDbEntity
8
0
100
AcDbSpline
70
0
71
3
72
11
73
7
74
0
42
0.000000001
43
0.0000000001
44
0.0000000001
40
0.42603253534346747
40
0.42603253534346747
40
0.42603253534346747
40
0.42603253534346747
40
0.67801271907320482
40
0.67801271907320482
40
0.67801271907320482
40
1
40
1
40
1
40
1
10
93.450654804279168
20
-23.434819959607395
30
0
10
93.480699582337024
20
-25.152424467899053
30
0
10
93.47709476875653
20
-26.877147241683844
30
0
10
93.434798486291356
20
-28.615002245336456
30
0
10
93.380751121206146
20
-30.835681661426161
30
0
10
93.251596576161703
20
-33.084073934275075
30
0
10
93.017709231694823
20
-35.334655955741781
30
0
0
SPLINE
5
125
100
AcDbEntity
8
0
100
AcDbSpline
70
0
71
3
72
8
73
4
74
0
42
0.000000001
43
0.0000000001
44
0.0000000001
40
0.14534287605048807
40
0.14534287605048807
40
0.14534287605048807
40
0.14534287605048807
40
0.42603253534346397
40
0.42603253534346397
40
0.42603253534346397
40
0.42603253534346397
10
93.231957496297383
20
-17.713103776760892
30
0
10
93.341964748211439
20
-19.617051574007665
30
0
10
93.417186860920367
20
-21.521519409157847
30
0
10
93.450654804279125
20
-23.434819959607314
30
0
0
SPLINE
5
126
100
AcDbEntity
8
0
100
AcDbSpline
70
0
71
3
72
8
73
4
74
0
42
0.000000001
43
0.0000000001
44
0.0000000001
40
0
40
0
40
0
40
0
40
0.14534287605048793
40
0.14534287605048793
40
0.14534287605048793
40
0.14534287605048793
10
93.034057575149504
20
-14.754739444979778
30
0
10
93.108705889634564
20
-15.741490853695204
30
0
10
93.17499504737826
20
-16.727227598069891
30
0
10
93.231957496297397
20
-17.713103776760889
30
0
0
LINE
5
127
100
AcDbEntity
8
0
100
AcDbLine
10
93.034057575149504
20
-14.754739444979778
30
0
11
91.74725016546509
21
2.2551426000506791
31
0
0
SPLINE
5
128
100
AcDbEntity
8
0
100
AcDbSpline
70
4
71
5
72
13
73
7
74
0
42
0.000000001
43
0.0000000001
44
0.0000000001
40
0.69832236112281809
40
0.69832236112281809
40
0.69832236112281809
40
0.69832236112281809
40
0.69832236112281809
40
0.69832236112281809
40
0.80000000000000004
40
1
40
1
40
1
40
1
40
1
40
1
41
1
41
1
41
1
41
1
41
1
41
1
41
1
10
91.583150411971246
20
8.096793057926865
30
0
10
91.572024260308851
20
7.7184659564523734
30
0
10
91.551939557032625
20
6.5885432045109384
30
0
10
91.567595403503077
20
5.4364147240433063
30
0
10
91.612885009312805
20
4.2611800258482084
30
0
10
91.686258333581861
20
3.0613734767425749
30
0
10
91.747250165465061
20
2.2551426000506791
30
0
0
SPLINE
5
129
100
AcDbEntity
8
0
100
AcDbSpline
70
4
71
5
72
15
73
9
74
0
42
0.000000001
43
0.0000000001
44
0.0000000001
40
0
40
0
40
0
40
0
40
0
40
0
40
0.20000000000000001
40
0.40000000000000002
40
0.60000000000000009
40
0.69832236112281365
40
0.69832236112281365
40
0.69832236112281365
40
0.69832236112281365
40
0.69832236112281365
40
0.69832236112281365
41
1
41
1
41
1
41
1
41
1
41
1
41
1
41
1
41
1
10
95.590193589848994
20
19.766013139087224
30
0
10
95.04744713911343
20
19.190101213690145
30
0
10
94.075642026417256
20
18.00710127126694
30
0
10
92.958690767895988
20
16.139152302537006
30
0
10
92.171428436643936
20
13.820748103272571
30
0
10
91.780867431551357
20
11.372150976667699
30
0
10
91.638914562078767
20
9.5655470096616888
30
0
10
91.593909409856479
20
8.4626356788266595
30
0
10
91.583150411971246
20
8.096793057926952
30
0
0
LINE
5
130
100
AcDbEntity
8
0
100
AcDbLine
10
95.590193589848994
20
19.766013139087224
30
0
11
100.09534924537583
21
24.546464239728571
31
0
0
SPLINE
5
131
100
AcDbEntity
8
0
100
AcDbSpline
70
4
71
5
72
14
73
8
74
0
42
0.000000001
43
0.0000000001
44
0.0000000001
40
0.44898385350180603
40
0.44898385350180603
40
0.44898385350180603
40
0.44898385350180603
40
0.44898385350180603
40
0.44898385350180603
40
0.60000000000000009
40
0.80000000000000004
40
1
40
1
40
1
40
1
40
1
40
1
41
1
41
1
41
1
41
1
41
1
41
1
41
1
41
1
10
103.52996880883943
20
31.53613686509533
30
0
10
103.47395652194486
20
31.120822136725653
30
0
10
103.29544872968896
20
30.159840939021258
30
0
10
102.85032680195997
20
28.672777420868009
30
0
10
102.17785707908635
20
27.241419416552702
30
0
10
101.28437084577173
20
25.902713919157478
30
0
10
100.51228395264333
20
24.988876474210965
30
0
10
100.09534924537581
20
24.546464239728571
30
0
0
SPLINE
5
132
100
AcDbEntity
8
0
100
AcDbSpline
70
4
71
5
72
14
73
8
74
0
42
0.000000001
43
0.0000000001
44
0.0000000001
40
0
40
0
40
0
40
0
40
0
40
0
40
0.20000000000000001
40
0.40000000000000002
40
0.44898385350180597
40
0.44898385350180597
40
0.44898385350180597
40
0.44898385350180597
40
0.44898385350180597
40
0.44898385350180597
41
1
41
1
41
1
41
1
41
1
41
1
41
1
41
1
10
102.09819054260457
20
37.73367771531251
30
0
10
102.46454164588516
20
37.188745997542235
30
0
10
103.07948743057696
20
36.093368338897733
30
0
10
103.5056144640912
20
34.851490835778129
30
0
10
103.67182912073851
20
33.601321703501299
30
0
10
103.62936964030588
20
32.356591403349036
30
0
10
103.54813704925057
20
31.670849055038843
30
0
10
103.52996880883941
20
31.53613686509533
30
0
0
LINE
5
133
100
AcDbEntity
8
0
100
AcDbLine
10
102.09819054260457
20
37.73367771531251
30
0
11
94.581235403468497
21
48.914829456608267
31
0
0
SPLINE
5
134
100
AcDbEntity
8
0
100
AcDbSpline
70
4
71
5
72
13
73
7
74
0
42
0.000000001
43
0.0000000001
44
0.0000000001
40
-0.23048492457131964
40
-0.23048492457131964
40
-0.23048492457131964
40
-0.23048492457131964
40
-0.23048492457131964
40
-0.23048492457131964
40
-0.20000000000000001
40
0
40
0
40
0
40
0
40
0
40
0
41
1
41
1
41
1
41
1
41
1
41
1
41
1
10
92.334592502302115
20
50.702366539387356
30
0
10
92.400277035087228
20
50.683537907497239
30
0
10
92.894239288327157
20
50.528477045968629
30
0
10
93.367572779100783
20
50.275595616961695
30
0
10
93.816131809838538
20
49.911835634862513
30
0
10
94.236963501311834
20
49.426919299773211
30
0
10
94.581235403468497
20
48.91482945660826
30
0
0
SPLINE
5
135
100
AcDbEntity
8
0
100
AcDbSpline
70
4
71
5
72
15
73
9
74
0
42
0.000000001
43
0.0000000001
44
0.0000000001
40
-1
40
-1
40
-1
40
-1
40
-1
40
-1
40
-0.80000000000000004
40
-0.60000000000000009
40
-0.40000000000000002
40
-0.23048492457144729
40
-0.23048492457144729
40
-0.23048492457144729
40
-0.23048492457144729
40
-0.23048492457144729
40
-0.23048492457144729
41
1
41
1
41
1
41
1
41
1
41
1
41
1
41
1
41
1
10
83.615444886771769
20
47.129834576059352
30
0
10
84.005034019469264
20
47.437201651852348
30
0
10
84.815622576672865
20
48.046727232215019
30
0
10
86.125635248935524
20
48.945343363912919
30
0
10
87.94831956016337
20
50.021414517836689
30
0
10
89.81894597971322
20
50.757581606573353
30
0
10
91.149512102413468
20
50.92203127430048
30
0
10
91.969345788190935
20
50.807065402840678
30
0
10
92.334592502300723
20
50.702366539387768
30
0
0
SPLINE
5
136
100
AcDbEntity
8
0
100
AcDbSpline
70
4
71
5
72
16
73
10
74
0
42
0.000000001
43
0.0000000001
44
0.0000000001
40
0
40
0
40
0
40
0
40
0
40
0
40
0.20000000000000001
40
0.40000000000000002
40
0.60000000000000009
40
0.80000000000000004
40
1
40
1
40
1
40
1
40
1
40
1
41
1
41
1
41
1
41
1
41
1
41
1
41
1
41
1
41
1
41
1
10
83.615444886771797
20
47.129834576059359
30
0
10
82.824905250947126
20
46.506136849997347
30
0
10
81.239580988552703
20
45.256714653626815
30
0
10
78.848898474599636
20
43.376484480694813
30
0
10
75.663143371141814
20
40.839858391476454
30
0
10
71.850768355908428
20
37.500722738201574
30
0
10
69.130988907010305
20
34.547578079637368
30
0
10
67.400760348605104
20
32.076992307669848
30
0
10
66.40937347132693
20
30.296671238132152
30
0
10
65.954242462533884
20
29.373164026080726
30
0
0
SPLINE
5
137
100
AcDbEntity
8
0
100
AcDbSpline
70
4
71
5
72
15
73
9
74
0
42
0.000000001
43
0.0000000001
44
0.0000000001
40
0
40
0
40
0
40
0
40
0
40
0
40
0.20000000000000001
40
0.40000000000000002
40
0.60000000000000009
40
0.71204107986479037
40
0.71204107986479037
40
0.71204107986479037
40
0.71204107986479037
40
0.71204107986479037
40
0.71204107986479037
41
1
41
1
41
1
41
1
41
1
41
1
41
1
41
1
41
1
10
51.325735494976293
20
6.2749311797205776
30
0
10
52.030344249284461
20
6.2714359786960259
30
0
10
53.507115282276416
20
6.8362777048245027
30
0
10
55.924699393446687
20
9.3972836497170071
30
0
10
59.065307917359931
20
14.90471782526377
30
0
10
62.223642033312323
20
21.54755321985521
30
0
10
64.341327166736406
20
26.057304411203859
30
0
10
65.538174674599617
20
28.528920071183958
30
0
10
65.954242462533898
20
29.37316402608073
30
0
0
LINE
5
138
100
AcDbEntity
8
0
100
AcDbLine
10
51.325735494976293
20
6.2749311797205776
30
0
11
35.439014142951692
21
6.3537370197087517
31
0
0
SPLINE
5
139
100
AcDbEntity
8
0
100
AcDbSpline
70
4
71
5
72
16
73
10
74
0
42
0.000000001
43
0.0000000001
44
0.0000000001
40
0
40
0
40
0
40
0
40
0
40
0
40
0.20000000000000001
40
0.40000000000000002
40
0.60000000000000009
40
0.80000000000000004
40
1
40
1
40
1
40
1
40
1
40
1
41
1
41
1
41
1
41
1
41
1
41
1
41
1
41
1
41
1
41
1
10
32.12765879195441
20
9.9086611150131816
30
0
10
32.257845457287068
20
9.9080278023580135
30
0
10
32.517000492631865
20
9.8346100794951816
30
0
10
32.9020832367559
20
9.5082542646685102
30
0
10
33.410782787103095
20
8.7257085213360526
30
0
10
34.052352740731358
20
7.5418391952815265
30
0
10
34.584520762301437
20
6.7581262137696037
30
0
10
35.002866713415209
20
6.4301160054888324
30
0
10
35.291934904725188
20
6.3552105087793631
30
0
10
35.439014142951692
20
6.3537370197087517
30
0
0
LINE
5
140
100
AcDbEntity
8
0
100
AcDbLine
10
32.12765879195441
20
9.9086611150131816
30
0
11
16.215058840493764
21
9.9860703558146326
31
0
0
SPLINE
5
141
100
AcDbEntity
8
0
100
AcDbSpline
70
4
71
5
72
15
73
9
74
0
42
0.000000001
43
0.0000000001
44
0.0000000001
40
0.22737339763157502
40
0.22737339763157502
40
0.22737339763157502
40
0.22737339763157502
40
0.22737339763157502
40
0.22737339763157502
40
0.40000000000000002
40
0.60000000000000009
40
0.80000000000000004
40
1
40
1
40
1
40
1
40
1
40
1
41
1
41
1
41
1
41
1
41
1
41
1
41
1
41
1
41
1
10
13.203090619470558
20
22.219042746897255
30
0
10
13.409132884714733
20
21.718323771801288
30
0
10
13.796507782023468
20
20.475216529683671
30
0
10
14.228440738390489
20
18.121862469517058
30
0
10
14.614157272228677
20
14.538486556167777
30
0
10
15.031967438274641
20
11.559372881206862
30
0
10
15.533270578989155
20
10.274556689833862
30
0
10
15.970590361904705
20
9.9872596095748705
30
0
10
16.215058840493764
20
9.9860703558146309
30
0
0
SPLINE
5
142
100
AcDbEntity
8
0
100
AcDbSpline
70
4
71
5
72
13
73
7
74
0
42
0.000000001
43
0.0000000001
44
0.0000000001
40
0
40
0
40
0
40
0
40
0
40
0
40
0.20000000000000001
40
0.22737339763155434
40
0.22737339763155434
40
0.22737339763155434
40
0.22737339763155434
40
0.22737339763155434
40
0.22737339763155434
41
1
41
1
41
1
41
1
41
1
41
1
41
1
10
11.312587351972452
20
23.960330579485767
30
0
10
11.748485942138501
20
23.960330579485767
30
0
10
12.189761898574202
20
23.798218369292758
30
0
10
12.569386320654235
20
23.451996952682286
30
0
10
12.893479855699981
20
22.942257776972248
30
0
10
13.170418500700476
20
22.298441746929498
30
0
10
13.203090619470434
20
22.219042746897554
30
0
0
LINE
5
143
100
AcDbEntity
8
0
100
AcDbLine
10
11.312587351972452
20
23.960330579485767
30
0
11
-3.9269528439208523
21
23.960330579485767
31
0
0
SPLINE
5
144
100
AcDbEntity
8
0
100
AcDbSpline
70
4
71
5
72
15
73
9
74
0
42
0.000000001
43
0.0000000001
44
0.0000000001
40
0.26608528691014477
40
0.26608528691014477
40
0.26608528691014477
40
0.26608528691014477
40
0.26608528691014477
40
0.26608528691014477
40
0.40000000000000002
40
0.60000000000000009
40
0.80000000000000004
40
1
40
1
40
1
40
1
40
1
40
1
41
1
41
1
41
1
41
1
41
1
41
1
41
1
41
1
41
1
10
-7.0268392919209122
20
19.960330579485763
30
0
10
-6.9906228196298015
20
20.184214096053022
30
0
10
-6.888376004039074
20
20.738951309297153
30
0
10
-6.6756086569189153
20
21.604593367163673
30
0
10
-6.2610908769792957
20
22.699011746265523
30
0
10
-5.6170059682586748
20
23.517740599803062
30
0
10
-4.8704781591635067
20
23.879818831329423
30
0
10
-4.260237184878223
20
23.960330579485767
30
0
10
-3.9269528439208528
20
23.960330579485767
30
0
0
SPLINE
5
145
100
AcDbEntity
8
0
100
AcDbSpline
70
4
71
5
72
13
73
7
74
0
42
0.000000001
43
0.0000000001
44
0.0000000001
40
0
40
0
40
0
40
0
40
0
40
0
40
0.20000000000000001
40
0.26608528691014466
40
0.26608528691014466
40
0.26608528691014466
40
0.26608528691014466
40
0.26608528691014466
40
0.26608528691014466
41
1
41
1
41
1
41
1
41
1
41
1
41
1
10
-7.2051044016256638
20
17.725711608306721
30
0
10
-7.2051044016256638
20
18.058465677057896
30
0
10
-7.1917567332650378
20
18.503991214746286
30
0
10
-7.1606618381774982
20
18.953258126748008
30
0
10
-7.1119770214316569
20
19.403613952745427
30
0
10
-7.0447116817950963
20
19.849846779121933
30
0
10
-7.0268392919209122
20
19.96033057948576
30
0
0
LINE
5
146
100
AcDbEntity
8
0
100
AcDbLine
10
-7.2051044016256638
20
17.725711608306721
30
0
11
-7.2051044016256638
21
-49.000000730156884
31
0
0
SPLINE
5
147
100
AcDbEntity
8
0
100
AcDbSpline
70
4
71
5
72
12
73
6
74
0
42
0.000000001
43
0.0000000001
44
0.0000000001
40
-0.18452299221544952
40
-0.18452299221544952
40
-0.18452299221544952
40
-0.18452299221544952
40
-0.18452299221544952
40
-0.18452299221544952
40
0
40
0
40
0
40
0
40
0
40
0
41
1
41
1
41
1
41
1
41
1
41
1
10
-7.0330819836193426
20
-50.616718719568809
30
0
10
-7.1007136065077612
20
-50.312719742234975
30
0
10
-7.1525014523487247
20
-49.998948753587094
30
0
10
-7.1875656140530868
20
-49.675605340779413
30
0
10
-7.2051044016256638
20
-49.342624497172665
30
0
10
-7.2051044016256638
20
-49.000000730156898
30
0
0
SPLINE
5
148
100
AcDbEntity
8
0
100
AcDbSpline
70
4
71
5
72
16
73
10
74
0
42
0.000000001
43
0.0000000001
44
0.0000000001
40
-0.87150007615642555
40
-0.87150007615642555
40
-0.87150007615642555
40
-0.87150007615642555
40
-0.87150007615642555
40
-0.87150007615642555
40
-0.80000000000000004
40
-0.60000000000000009
40
-0.40000000000000002
40
-0.20000000000000001
40
-0.1845229922154501
40
-0.1845229922154501
40
-0.1845229922154501
40
-0.1845229922154501
40
-0.1845229922154501
40
-0.1845229922154501
41
1
41
1
41
1
41
1
41
1
41
1
41
1
41
1
41
1
41
1
10
-3.888712997837565
20
-54.489399891684002
30
0
10
-3.9920519988364345
20
-54.461392139803152
30
0
10
-4.3762726548183748
20
-54.340906338997939
30
0
10
-4.9903718430110651
20
-54.040659171745496
30
0
10
-5.7416367974358886
20
-53.4122776080929
30
0
10
-6.3480368594368519
20
-52.550830377304962
30
0
10
-6.7501425020996813
20
-51.65316392730989
30
0
10
-6.9468805621899312
20
-50.996255010492995
30
0
10
-7.0274093292722686
20
-50.642216867426704
30
0
10
-7.0330819836193399
20
-50.616718719568816
30
0
0
LINE
5
149
100
AcDbEntity
8
0
100
AcDbLine
10
-3.888712997837565
20
-54.489399891684002
30
0
11
-3.889170330664566
21
-54.616718719568809
31
0
0
LINE
5
150
100
AcDbEntity
8
0
100
AcDbLine
10
-3.889170330664566
20
-54.616718719568809
30
0
11
2.6186420476163015
21
-54.616718719568809
31
0
0
SPLINE
5
151
100
AcDbEntity
8
0
100
AcDbSpline
70
0
71
3
72
20
73
16
74
0
42
0.000000001
43
0.0000000001
44
0.0000000001
40
0.13979111546090439
40
0.13979111546090439
40
0.13979111546090439
40
0.13979111546090439
40
0.17112855423075315
40
0.17112855423075315
40
0.17112855423075315
40
0.38593495030313996
40
0.38593495030313996
40
0.38593495030313996
40
0.63272958992324757
40
0.63272958992324757
40
0.63272958992324757
40
0.82115989298640035
40
0.82115989298640035
40
0.82115989298640035
40
1
40
1
40
1
40
1
10
13.064982493884481
20
-65.269933415778524
30
0
10
12.811967977392918
20
-65.126957756380122
30
0
10
12.566483802030069
20
-64.97336055537771
30
0
10
12.329811108185904
20
-64.809923541858652
30
0
10
10.707508507555939
20
-63.689624077799067
30
0
10
9.5114293793639515
20
-62.198938244587758
30
0
10
8.5422749353017355
20
-60.801058242162149
30
0
10
7.4287972822528969
20
-59.19501066751485
30
0
10
6.5602501228957077
20
-57.675880427908353
30
0
10
5.7737526011682334
20
-56.624606163257496
30
0
10
5.1732534711804368
20
-55.82194720520404
30
0
10
4.6559670261659587
20
-55.317303263549277
30
0
10
4.1934403931361466
20
-55.031325281366428
30
0
10
3.7544541409091439
20
-54.759902202882216
30
0
10
3.342068012367462
20
-54.616718719568809
30
0
10
2.6186420476163015
20
-54.616718719568809
30
0
0
SPLINE
5
152
100
AcDbEntity
8
0
100
AcDbSpline
70
0
71
3
72
8
73
4
74
0
42
0.000000001
43
0.0000000001
44
0.0000000001
40
0.03362386851367636
40
0.03362386851367636
40
0.03362386851367636
40
0.03362386851367636
40
0.13979111546090431
40
0.13979111546090431
40
0.13979111546090431
40
0.13979111546090431
10
15.846000760876219
20
-66.326953889447168
30
0
10
14.865775183819931
20
-66.116789368064431
30
0
10
13.922163415748404
20
-65.754316720051548
30
0
10
13.064982493884481
20
-65.269933415778524
30
0
0
SPLINE
5
153
100
AcDbEntity
8
0
100
AcDbSpline
70
0
71
3
72
8
73
4
74
0
42
0.000000001
43
0.0000000001
44
0.0000000001
40
0
40
0
40
0
40
0
40
0.033623868513582553
40
0.033623868513582553
40
0.033623868513582553
40
0.033623868513582553
10
16.786767422181686
20
-66.479838820749706
30
0
10
16.470561070935346
20
-66.444797900842516
30
0
10
16.156444677098825
20
-66.393514381844184
30
0
10
15.846000760878823
20
-66.326953889447722
30
0
0
LINE
5
154
100
AcDbEntity
8
0
100
AcDbLine
10
16.786767422181686
20
-66.479838820749706
30
0
11
48.404208329528721
21
-69.983576839097083
31
0
0
CIRCLE
5
155
100
AcDbEntity
8
0
100
AcDbCircle
10
2.6053786953979872
20
3.5187431340578632
30
0
40
1.9999999999999982
210
-0
220
0
230
1
0
CIRCLE
5
156
100
AcDbEntity
8
0
100
AcDbCircle
10
2.0000000298023144
20
-43.00000064074996
30
0
40
1.9999999999999982
210
-0
220
0
230
1
0
CIRCLE
5
157
100
AcDbEntity
8
0
100
AcDbCircle
10
43.982639654627235
20
-42.435476085430821
30
0
40
2.0000000000000018
210
-0
220
0
230
1
0
CIRCLE
5
158
100
AcDbEntity
8
0
100
AcDbCircle
10
43.982639654627235
20
-12.435476085430818
30
0
40
2.0000000000000018
210
-0
220
0
230
1
0
CIRCLE
5
159
100
AcDbEntity
8
0
100
AcDbCircle
10
92.537498265087663
20
37.726942313598222
30
0
40
1.9999999999999929
210
-0
220
0
230
1
0
LINE
5
160
100
AcDbEntity
8
0
100
AcDbLine
10
49.982639654627228
20
-41.946855940135762
30
0
11
49.982639654627228
21
-16.552929262631014
31
0
0
SPLINE
5
161
100
AcDbEntity
8
0
100
AcDbSpline
70
4
71
5
72
16
73
10
74
0
42
0.000000001
43
0.0000000001
44
0.0000000001
40
0
40
0
40
0
40
0
40
0
40
0
40
0.20000000000000001
40
0.40000000000000002
40
0.60000000000000009
40
0.80000000000000004
40
1
40
1
40
1
40
1
40
1
40
1
41
1
41
1
41
1
41
1
41
1
41
1
41
1
41
1
41
1
41
1
10
49.982639654627228
20
-16.552929262631014
30
0
10
49.982639654627228
20
-16.093321345855887
30
0
10
50.025487105131241
20
-15.181175109244837
30
0
10
50.218203568700631
20
-13.834167922759679
30
0
10
50.712685355550995
20
-12.094166699945845
30
0
10
51.70805217897508
20
-10.118849031610521
30
0
10
52.856783636114699
20
-8.8388826649213943
30
0
10
53.976805589638907
20
-8.1439092004653162
30
0
10
54.853566431502081
20
-7.8181281458874476
30
0
10
55.324494432783467
20
-7.6896526777060696
30
0
0
SPLINE
5
162
100
AcDbEntity
8
0
100
AcDbSpline
70
0
71
3
72
32
73
28
74
0
42
0.000000001
43
0.0000000001
44
0.0000000001
40
-0.95521141449658264
40
-0.95521141449658264
40
-0.95521141449658264
40
-0.95521141449658264
40
-0.92212407845452637
40
-0.92212407845452637
40
-0.92212407845452637
40
-0.91618406428921018
40
-0.91618406428921018
40
-0.91618406428921018
40
-0.82001100220572887
40
-0.82001100220572887
40
-0.82001100220572887
40
-0.80445626942682757
40
-0.80445626942682757
40
-0.80445626942682757
40
-0.60891253885365515
40
-0.60891253885365515
40
-0.60891253885365515
40
-0.36465400559479916
40
-0.36465400559479916
40
-0.36465400559479916
40
-0.3046044238785377
40
-0.3046044238785377
40
-0.3046044238785377
40
-0.18951574067709762
40
-0.18951574067709762
40
-0.18951574067709762
40
-0.12330635197352444
40
-0.12330635197352444
40
-0.12330635197352444
40
-0.12330635197352444
10
55.324494432783453
20
-7.6896526777060696
30
0
10
56.253852358437868
20
-7.4361113841715154
30
0
10
57.129301768587766
20
-7.1040044014406494
30
0
10
57.949454337824093
20
-6.7185244844685439
30
0
10
58.096692479715969
20
-6.6493210839787391
30
0
10
58.242284531978612
20
-6.5781984070445727
30
0
10
58.386269948139216
20
-6.5051998566364926
30
0
10
60.569139564004587
20
-5.3985161247904632
30
0
10
62.280737717125177
20
-3.9476425199157861
30
0
10
63.610751897771735
20
-2.5769211940897039
30
0
10
63.825864266286615
20
-2.3552249781674277
30
0
10
64.031896103357326
20
-2.1349035027961545
30
0
10
64.229899948321815
20
-1.9168669976255592
30
0
10
66.748739322086507
20
0.85681113089880967
30
0
10
68.568208223859926
20
3.8792101518768503
30
0
10
70.226219496982637
20
6.8790447944248578
30
0
10
72.313752903204858
20
10.656012497224141
30
0
10
74.173534890480326
20
14.612724923338309
30
0
10
75.773333226652227
20
17.960518122627988
30
0
10
76.16663461774705
20
18.783554184491351
30
0
10
76.542994562040008
20
19.568202450435081
30
0
10
76.89890832528647
20
20.298476308711848
30
0
10
77.575737489671695
20
21.687213402667886
30
0
10
78.203041966784198
20
22.918646327127874
30
0
10
78.702327910401749
20
23.838046800477137
30
0
10
78.989562208298295
20
24.36696885971805
30
0
10
79.239598792165651
20
24.799213179704736
30
0
10
79.394124591385079
20
25.049463082077722
30
0
0
SPLINE
5
163
100
AcDbEntity
8
0
100
AcDbSpline
70
0
71
3
72
8
73
4
74
0
42
0.000000001
43
0.0000000001
44
0.0000000001
40
-0.41843390938894048
40
-0.41843390938894048
40
-0.41843390938894048
40
-0.41843390938894048
40
-0.10333943473456894
40
-0.10333943473456894
40
-0.10333943473456894
40
-0.10333943473456894
10
79.394124591385079
20
25.049463082077704
30
0
10
81.015605097874342
20
26.503509484202464
30
0
10
82.411382895551327
20
27.828296020522188
30
0
10
83.659189874976349
20
28.927758253125418
30
0
0
ARC
5
164
100
AcDbEntity
8
0
100
AcDbCircle
10
92.537498265087663
20
37.726942313598222
30
0
40
12.49999999999998
210
0
220
0
230
1
100
AcDbArc
50
224.74354621376855
51
232.33266371511354
0
SPLINE
5
165
100
AcDbEntity
8
0
100
AcDbSpline
70
0
71
3
72
11
73
7
74
0
42
0.000000001
43
0.0000000001
44
0.0000000001
40
0.052478916354529129
40
0.052478916354529129
40
0.052478916354529129
40
0.052478916354529129
40
0.44325351539139318
40
0.44325351539139318
40
0.44325351539139318
40
0.89537870350125115
40
0.89537870350125115
40
0.89537870350125115
40
0.89537870350125115
10
84.899049856245043
20
27.832291945573679
30
0
10
82.139159607309708
20
24.54025225118507
30
0
10
80.291738461262099
20
20.889373979058217
30
0
10
79.034850665447237
20
17.310524703320983
30
0
10
77.598837899578484
20
13.221636845398063
30
0
10
76.763908848107988
20
8.8261500066965404
30
0
10
76.722133180483439
20
4.2600722926375179
30
0
0
SPLINE
5
166
100
AcDbEntity
8
0
100
AcDbSpline
70
0
71
3
72
8
73
4
74
0
42
0.000000001
43
0.0000000001
44
0.0000000001
40
0.75770064419810401
40
0.75770064419810401
40
0.75770064419810401
40
0.75770064419810401
40
1
40
1
40
1
40
1
10
76.90132724898217
20
-2.2773569257720507
30
0
10
76.771975170210453
20
-0.14039728915693994
30
0
10
76.70195947592839
20
2.0550877162847261
30
0
10
76.722133180483468
20
4.2600722926374788
30
0
0
SPLINE
5
167
100
AcDbEntity
8
0
100
AcDbSpline
70
0
71
3
72
8
73
4
74
0
42
0.000000001
43
0.0000000001
44
0.0000000001
40
0.42278744305429178
40
0.42278744305429178
40
0.42278744305429178
40
0.42278744305429178
40
0.75770064419810468
40
0.75770064419810468
40
0.75770064419810468
40
0.75770064419810468
10
77.628330371619768
20
-10.804284065789528
30
0
10
77.360271968742182
20
-8.067812014661575
30
0
10
77.080121446072539
20
-5.2311245503127246
30
0
10
76.90132724898217
20
-2.2773569257724136
30
0
0
SPLINE
5
168
100
AcDbEntity
8
0
100
AcDbSpline
70
0
71
3
72
8
73
4
74
0
42
0.000000001
43
0.0000000001
44
0.0000000001
40
0.33802623915386182
40
0.33802623915386182
40
0.33802623915386182
40
0.33802623915386182
40
0.42278744305429156
40
0.42278744305429156
40
0.42278744305429156
40
0.42278744305429156
10
77.82769171978407
20
-12.862973235476364
30
0
10
77.763238488278247
20
-12.182980209096284
30
0
10
77.696171689507324
20
-11.496841614137365
30
0
10
77.628330371619782
20
-10.804284065789531
30
0
0
SPLINE
5
169
100
AcDbEntity
8
0
100
AcDbSpline
70
0
71
3
72
8
73
4
74
0
42
0.000000001
43
0.0000000001
44
0.0000000001
40
0.2378187067494601
40
0.2378187067494601
40
0.2378187067494601
40
0.2378187067494601
40
0.33802623915386176
40
0.33802623915386176
40
0.33802623915386176
40
0.33802623915386176
10
78.042290457100108
20
-15.249387980243556
30
0
10
77.976436334956986
20
-14.462204755319679
30
0
10
77.903890487468772
20
-13.666883752200436
30
0
10
77.827691719784028
20
-12.862973235476362
30
0
0
SPLINE
5
170
100
AcDbEntity
8
0
100
AcDbSpline
70
0
71
3
72
8
73
4
74
0
42
0.000000001
43
0.0000000001
44
0.0000000001
40
0
40
0
40
0
40
0
40
0.2378187067494606
40
0.2378187067494606
40
0.2378187067494606
40
0.2378187067494606
10
78.394390828742928
20
-20.769129147090602
30
0
10
78.320129592683301
20
-18.94343126419048
30
0
10
78.198579528254854
20
-17.117579842018529
30
0
10
78.042290457100052
20
-15.249387980242957
30
0
0
SPLINE
5
171
100
AcDbEntity
8
0
100
AcDbSpline
70
0
71
3
72
11
73
7
74
0
42
0.000000001
43
0.0000000001
44
0.0000000001
40
0.26312342325683979
40
0.26312342325683979
40
0.26312342325683979
40
0.26312342325683979
40
0.32639962947122303
40
0.32639962947122303
40
0.32639962947122303
40
1
40
1
40
1
40
1
10
78.394390828742928
20
-20.769129147090535
30
0
10
78.410054048476923
20
-21.154206323624397
30
0
10
78.424104353405014
20
-21.539022809283068
30
0
10
78.436509992458696
20
-21.923460910274613
30
0
10
78.569373155265964
20
-26.040754810274741
30
0
10
78.524806464708035
20
-29.965447982701985
30
0
10
78.139884446580155
20
-33.669361829087848
30
0
0
LINE
5
172
100
AcDbEntity
8
0
100
AcDbLine
10
78.139884446580155
20
-33.669361829087848
30
0
11
76.902761032099178
21
-45.573587435278313
31
0
0
ARC
5
173
100
AcDbEntity
8
0
100
AcDbCircle
10
81.092068765860432
20
-57.350671145257124
30
0
40
12.500000000000007
210
0
220
0
230
1
100
AcDbArc
50
109.58133237014988
51
150.34651849153249
0
LINE
5
174
100
AcDbEntity
8
0
100
AcDbLine
10
70.229150123239222
20
-51.166255363326471
30
0
11
57.933364083023463
21
-51.166255363326471
31
0
0
SPLINE
5
175
100
AcDbEntity
8
0
100
AcDbSpline
70
4
71
5
72
16
73
10
74
0
42
0.000000001
43
0.0000000001
44
0.0000000001
40
0
40
0
40
0
40
0
40
0
40
0
40
0.20000000000000001
40
0.40000000000000002
40
0.60000000000000009
40
0.80000000000000004
40
1
40
1
40
1
40
1
40
1
40
1
41
1
41
1
41
1
41
1
41
1
41
1
41
1
41
1
41
1
41
1
10
57.933364083023463
20
-51.166255363326471
30
0
10
57.317704445970392
20
-51.166255363326471
30
0
10
56.151736887486123
20
-51.060738563906995
30
0
10
54.598684801707719
20
-50.586195719995757
30
0
10
52.883419349629996
20
-49.406453118246588
30
0
10
51.259103411513316
20
-47.312585693368241
30
0
10
50.399160032993073
20
-45.315499791738667
30
0
10
50.05840485848212
20
-43.682489525411306
30
0
10
49.982639654627228
20
-42.535178508800456
30
0
10
49.982639654627228
20
-41.946855940135762
30
0
0
ENDSEC
0
SECTION
2
OBJECTS
0
DICTIONARY
5
C
100
AcDbDictionary
3
ACAD_GROUP
350
D
3
ACAD_MLINESTYLE
350
17
0
DICTIONARY
5
D
100
AcDbDictionary
0
DICTIONARY
5
1A
330
C
100
AcDbDictionary
0
DICTIONARY
5
17
100
AcDbDictionary
0
ENDSEC
0
EOF
